<?xml version="1.0" standalone="no"?>
<!DOCTYPE svg PUBLIC "-//W3C//DTD SVG 1.1//EN" "http://www.w3.org/Graphics/SVG/1.1/DTD/svg11.dtd" >
<svg xmlns="http://www.w3.org/2000/svg">
<metadata>
Created by FontForge 20120731 at Sat Apr 16 14:05:38 2016
 By admin
</metadata>
<defs>
<font id="iconfont" horiz-adv-x="1024" >
  <font-face 
    font-family="iconfont"
    font-weight="500"
    font-stretch="normal"
    units-per-em="1024"
    panose-1="2 0 6 3 0 0 0 0 0 0"
    ascent="896"
    descent="-128"
    x-height="792"
    bbox="0 -224 2790 896.333"
    underline-thickness="50"
    underline-position="-100"
    unicode-range="U+0078-E705"
  />
<missing-glyph horiz-adv-x="374" 
d="M34 0v682h272v-682h-272zM68 34h204v614h-204v-614z" />
    <glyph glyph-name=".notdef" horiz-adv-x="374" 
d="M34 0v682h272v-682h-272zM68 34h204v614h-204v-614z" />
    <glyph glyph-name=".null" horiz-adv-x="0" 
 />
    <glyph glyph-name="nonmarkingreturn" horiz-adv-x="341" 
 />
    <glyph glyph-name="x" unicode="x" horiz-adv-x="1001" 
d="M281 543q-27 -1 -53 -1h-83q-18 0 -36.5 -6t-32.5 -18.5t-23 -32t-9 -45.5v-76h912v41q0 16 -0.5 30t-0.5 18q0 13 -5 29t-17 29.5t-31.5 22.5t-49.5 9h-133v-97h-438v97zM955 310v-52q0 -23 0.5 -52t0.5 -58t-10.5 -47.5t-26 -30t-33 -16t-31.5 -4.5q-14 -1 -29.5 -0.5
t-29.5 0.5h-32l-45 128h-439l-44 -128h-29h-34q-20 0 -45 1q-25 0 -41 9.5t-25.5 23t-13.5 29.5t-4 30v167h911zM163 247q-12 0 -21 -8.5t-9 -21.5t9 -21.5t21 -8.5q13 0 22 8.5t9 21.5t-9 21.5t-22 8.5zM316 123q-8 -26 -14 -48q-5 -19 -10.5 -37t-7.5 -25t-3 -15t1 -14.5
t9.5 -10.5t21.5 -4h37h67h81h80h64h36q23 0 34 12t2 38q-5 13 -9.5 30.5t-9.5 34.5q-5 19 -11 39h-368zM336 498v228q0 11 2.5 23t10 21.5t20.5 15.5t34 6h188q31 0 51.5 -14.5t20.5 -52.5v-227h-327z" />
    <glyph glyph-name="uniE600" unicode="&#xe600;" 
d="M394.5 16q-19.5 0 -33.5 -14t-14 -34t14 -34t33.5 -14t33.5 14t14 34t-14 34t-33.5 14zM631 770h-474q-29 0 -50.5 -21t-21.5 -51v-796q0 -30 21.5 -51t50.5 -21h474q30 0 51.5 21t21.5 51v796q0 30 -21.5 51t-51.5 21zM157 722h474q10 0 17 -7t7 -17v-596h-522v596
q0 10 7 17t17 7zM631 -122h-474q-10 0 -17 7t-7 17v148h522v-148q0 -10 -7 -17t-17 -7z" />
    <glyph glyph-name="uniE601" unicode="&#xe601;" horiz-adv-x="1153" 
d="M749 167h-345q-9 0 -15.5 6t-6.5 15t6.5 15.5t15.5 6.5h345q9 0 15 -6.5t6 -15.5t-6 -15t-15 -6zM231 167h-172q-9 0 -15.5 6t-6.5 15t6.5 15.5t15.5 6.5h172q9 0 15.5 -6.5t6.5 -15.5t-6.5 -15t-15.5 -6zM1094 167h-173q-8 0 -14.5 6t-6.5 15t6.5 15.5t14.5 6.5h173
q9 0 15.5 -6.5t6.5 -15.5t-6.5 -15t-15.5 -6zM835 138q-9 0 -15 6.5t-6 15.5v115q0 9 6 15t15 6t15.5 -6t6.5 -15v-115q0 -9 -6.5 -15.5t-15.5 -6.5zM317.5 138q-8.5 0 -15 6.5t-6.5 15.5v115q0 9 6.5 15t15 6t15 -6t6.5 -15v-115q0 -9 -6.5 -15.5t-15 -6.5zM1123 -178
h-1093q-9 0 -15.5 6t-6.5 15v748q0 9 6.5 15.5t15.5 6.5h1093q9 0 15 -6.5t6 -15.5v-748q0 -9 -6 -15t-15 -6zM51 -135h1050v704h-1050v-704zM778 598q-9 0 -15.5 6.5t-6.5 15.5v122h-359v-122q0 -9 -6.5 -15.5t-15.5 -6.5t-15.5 6.5t-6.5 15.5v144q0 9 6.5 15t15.5 6h403
q9 0 15 -6t6 -15v-144q0 -9 -6 -15.5t-15 -6.5z" />
    <glyph glyph-name="uniE602" unicode="&#xe602;" 
d="M939 22h-599l-169 -168v168h-86q-35 0 -60 25t-25 60v554q0 36 25 60.5t60 24.5h854q35 0 60 -24.5t25 -60.5v-554q0 -35 -25 -60t-60 -25zM981 661q0 18 -12.5 30.5t-29.5 12.5h-854q-17 0 -29.5 -12.5t-12.5 -30.5v-554q0 -17 12.5 -29.5t29.5 -12.5h86h42v-43v-66
l97 96l12 13h18h599q17 0 29.5 12.5t12.5 29.5v554zM512 342q-18 0 -30.5 12.5t-12.5 30t12.5 30t30.5 12.5t30.5 -12.5t12.5 -30t-12.5 -30t-30.5 -12.5zM341 342q-17 0 -29.5 12.5t-12.5 30t12.5 30t30 12.5t30 -12.5t12.5 -30t-12.5 -30t-30.5 -12.5zM679 342
q-18 0 -30.5 12.5t-12.5 30t12.5 30t30 12.5t30 -12.5t12.5 -30t-12.5 -30t-29.5 -12.5z" />
    <glyph glyph-name="uniE603" unicode="&#xe603;" 
d="M373 155zM349 175l48 -39l-266 -331l-48 39zM585.5 59q-96.5 0 -178.5 47.5t-129.5 129.5t-47.5 178.5t47.5 178.5t129.5 130t178.5 48t178.5 -48t130 -130t48 -178.5t-48 -178.5t-130 -129.5t-178.5 -47.5zM585.5 709q-121.5 0 -208 -86.5t-86.5 -208t86.5 -208
t208 -86.5t208 86.5t86.5 208t-86.5 208t-208 86.5z" />
    <glyph glyph-name="uniE604" unicode="&#xe604;" 
d="M102 36h820v-128h-820v128zM163 85q0 24 27 24h648q10 0 17.5 -6.5t7.5 -17.5v-56q0 -5 -6 -5h-689q-5 0 -5 5v56zM827 75h-628v386v3q15 57 62 114q41 49 96 77q69 36 156 36q89 0 158 -36q56 -29 96 -78q46 -57 59 -115l1 -3v-384zM267 123l497 -2v332q-12 41 -49 86
q-34 39 -86.5 63t-117.5 24q-64 0 -115.5 -24.5t-86.5 -64.5q-36 -42 -49 -85l-1 -329h8zM382 436l-58 1q0 6 1.5 16t12 33.5t28.5 41.5t39 27.5t30.5 11t14.5 1.5l1 -48l-1 -11q-18 0 -43 -25q-25 -24 -25 -48zM324 395h57v-181h-57v181z" />
    <glyph glyph-name="uniE605" unicode="&#xe605;" 
d="M966 -43h-896q-22 0 -38 13.5t-16 32.5v607q0 19 16 32.5t38 13.5h896q23 0 39 -13.5t16 -32.5v-607q0 -19 -16 -32.5t-39 -13.5zM70 622q-8 0 -14 -4t-6 -8v-607q0 -5 6 -8.5t14 -3.5h896q8 0 14 3.5t6 8.5v607q0 4 -6 8t-14 4h-896zM363 314l24 -24l-329 -329l-24 24z
M674 317l336 -336l-24 -24l-336 335zM516.5 142q-17.5 0 -29.5 13l-449 448l24 25l449 -449q2 -3 5.5 -3t5.5 3l452 452l24 -25l-451 -451q-13 -13 -30.5 -13z" />
    <glyph glyph-name="uniE606" unicode="&#xe606;" 
d="M683 362q21 0 36 15t15 36t-15 36t-36 15t-36 -15t-15 -36t15 -36t36 -15zM318 362q21 0 35.5 15t14.5 36t-14.5 36t-35.5 15t-36 -15t-15 -36t15 -36t36 -15zM510.5 748q-90.5 0 -173.5 -35.5t-142.5 -95t-95 -142.5t-35.5 -173.5t35.5 -173.5t95 -142.5t142.5 -95
t173.5 -35.5t173.5 35.5t142.5 95t95 142.5t35.5 173.5t-35.5 173.5t-95 142.5t-142.5 95t-173.5 35.5zM510.5 -105q-110.5 0 -204 54.5t-148 148t-54.5 204t54.5 204t148 148t204 54.5t204 -54.5t148 -148t54.5 -204t-54.5 -204t-148 -148t-204 -54.5zM510.5 77
q-77.5 0 -134.5 47t-65 117h-43q8 -86 78 -144.5t164.5 -58.5t164.5 58.5t78 144.5h-43q-8 -70 -65 -117t-134.5 -47z" />
    <glyph glyph-name="uniE607" unicode="&#xe607;" 
d="M512 783q-98 0 -187.5 -38t-154.5 -103t-103 -154t-38 -187.5t38 -188t103 -154t154.5 -103t187.5 -38.5t187.5 38.5t154.5 103t103 154t38 188t-38 187.5t-103 154t-154.5 103t-187.5 38zM512 -143q-90 0 -172 35.5t-141.5 94.5t-94.5 141t-35 172t35 172t94.5 141.5
t141.5 94.5t172 35t172 -35t141.5 -94.5t94.5 -141.5t35 -172t-35 -172t-94.5 -141t-141.5 -94.5t-172 -35.5zM263 285q0 30 13 51.5t31 21.5t31 -21.5t13 -52t-13 -52.5t-31 -22t-31 21.5t-13 52.5v1zM670 285q1 30 14 51.5t31 21.5t31 -21.5t13 -52t-13 -52.5t-31 -22
t-31 21.5t-14 52.5v1zM447 77q1 9 19.5 15.5t43.5 6.5q27 0 45.5 -6.5t18.5 -15.5t-18.5 -15.5t-45.5 -6.5q-25 0 -43.5 6t-19.5 15v1z" />
    <glyph glyph-name="uniE608" unicode="&#xe608;" 
d="M512 812q-104 0 -199 -40.5t-163.5 -109t-109 -163.5t-40.5 -199t40.5 -199t109 -163.5t163.5 -109t199 -40.5q139 0 257 68.5t186.5 186.5t68.5 257t-68.5 257t-186.5 186.5t-257 68.5zM512 -167q-95 0 -181.5 37t-149 99.5t-99.5 149t-37 181.5t37 181.5t99.5 149
t149 99.5t181.5 37t181.5 -37t149 -99.5t99.5 -149t37 -181.5t-37 -181.5t-99.5 -149t-149 -99.5t-181.5 -37zM512 217q-41 0 -76 -8t-56.5 -19.5t-37.5 -22.5t-22 -19l-6 -8v-32q1 3 5 8t20 18.5t36.5 23.5t57 18.5t79.5 8.5t79.5 -8t57.5 -19t35.5 -23t20 -19t5.5 -8v32
q0 1 -6 8t-22 19t-37.5 23t-56.5 19t-76 8zM355 422q-17 0 -29 -12.5t-12 -29.5t12 -29.5t29 -12.5t29.5 12.5t12.5 29.5t-12.5 29.5t-29.5 12.5zM669 422q-17 0 -29.5 -12.5t-12.5 -29.5t12.5 -29.5t29.5 -12.5t29 12.5t12 29.5t-12 29.5t-29 12.5z" />
    <glyph glyph-name="uniE609" unicode="&#xe609;" 
d="M513 497q-36 0 -61 -25.5t-25 -61.5v-90h173v90q0 36 -25.5 61.5t-61.5 25.5zM513.5 734q-88.5 0 -169 -34.5t-138.5 -92.5t-92.5 -138.5t-34.5 -169t34.5 -169t92.5 -138.5t138.5 -92.5t169 -34.5t169 34.5t138.5 92.5t92.5 138.5t34.5 169t-34.5 169t-92.5 138.5
t-138.5 92.5t-169 34.5zM687 102q0 -18 -12.5 -30.5t-30.5 -12.5h-261q-18 0 -30.5 12.5t-12.5 30.5v174q0 18 12.5 31t30.5 13v90q0 54 38 92.5t92 38.5t92.5 -38.5t38.5 -92.5v-90q18 0 30.5 -13t12.5 -31v-174z" />
    <glyph glyph-name="uniE60A" unicode="&#xe60a;" 
d="M173 -55h-61v-41q0 -21 15.5 -37t37.5 -16h53v63q-25 0 -35 5.5t-10 25.5zM112 594v-51h61q0 22 12 34.5t34 12.5v61h-54q-21 0 -37 -17.5t-16 -39.5zM173 83h-61v-77h61v77zM265 590h93v61h-93v-61zM265 -149h92v63h-92v-63zM173 222h-61v-79h61v79zM173 483h-61v-77h61
v77zM618 651h-76v-61h76v61zM173 359h-61v-77h61v77zM496 651h-93v-61h93v61zM848 6h61v77h-61v-77zM848 143h61v79h-61v-79zM848 282h61v77h-61v-77zM542 -149h75v63h-75v-63zM404 -149h92v63h-92v-63zM803 -86v-63h53q22 0 37.5 16t15.5 37v41h-61q0 -20 -10 -25.5
t-35 -5.5zM665 -149h76v63h-76v-63zM860 515l-131 122q-9 8 -1 18l-3 -4h-60v-61h6l-54 -60l-52 -58l-103 -116q-31 -36 -58 -96.5t-37.5 -108.5t-1.5 -56q10 -9 56 5.5t102.5 47.5t88.5 70l103 115l52 58l81 92v-77h61v77h-60l29 33q-8 -9 -18 -1zM400 132q-10 12 -7.5 33
t14 48t24.5 50.5t23 40t10 15.5l112 -103q0 -2 -35.5 -29.5t-79.5 -48.5t-61 -6zM746 656l131 -121q10 -9 1 -19l60 68q21 24 20 56t-25 54l-37 34q-24 22 -55.5 20t-52.5 -26l-60 -67q9 10 18 1z" />
    <glyph glyph-name="uniE60B" unicode="&#xe60b;" 
d="M512 -212q-9 3 -24.5 9t-61 27t-86.5 44.5t-91 61t-86.5 77.5t-61 92.5t-24.5 107.5v450l435 155l435 -155v-450q0 -55 -24 -107.5t-62.5 -93t-84.5 -76.5t-92.5 -61.5t-85 -44t-62.5 -27.5zM913 635l-401 143l-401 -143v-422q0 -40 13.5 -79t37 -71t53.5 -62t63 -53.5
t66.5 -44t63.5 -35.5t53.5 -25.5t36.5 -15.5l14 -5q8 3 22.5 8.5t56.5 25.5t79.5 41.5t84 57t79.5 72.5t56 86t23 100v422zM695 206h-166v-166q0 -5 -4 -9t-9 -4h-8q-5 0 -9 4t-4 9v166h-166q-6 0 -9.5 4t-3.5 9v8q0 6 3.5 9.5t9.5 3.5h166v94h-166q-6 0 -9.5 4t-3.5 9v8
q0 6 3.5 9.5t9.5 3.5h145l-144 165q-9 8 -1 19l5 7q8 9 18 1l153 -177q7 -5 4 -15h4q-3 9 3 15l154 177q10 9 18 -1l5 -7q8 -10 -2 -19l-141 -165h145q6 0 9.5 -3.5t3.5 -9.5v-8q0 -5 -3.5 -9t-9.5 -4h-166v-94h166q6 0 9.5 -3.5t3.5 -9.5v-8q0 -5 -3.5 -9t-9.5 -4z" />
    <glyph glyph-name="uniE60C" unicode="&#xe60c;" 
d="M1005 300q0 -29 -22.5 -67.5t-67.5 -78.5t-103.5 -74t-137.5 -56t-162 -22q-81 0 -159.5 21.5t-137 55.5t-104 74t-69 78.5t-23.5 68.5t23.5 68.5t69 78.5t104.5 74t137 55t159 21q84 0 163 -21t137.5 -55t103 -74t67.5 -78.5t22 -68.5zM512.5 543q-98.5 0 -168 -71
t-69.5 -172t69.5 -172t168 -71t168 71t69.5 172t-69.5 172t-168 71zM512 455q-63 0 -107 -45.5t-44 -109.5t44 -109.5t107 -45.5t107 45.5t44 109.5t-44 109.5t-107 45.5z" />
    <glyph glyph-name="uniE60D" unicode="&#xe60d;" 
d="M836 300l-642 -374v748z" />
    <glyph glyph-name="uniE60E" unicode="&#xe60e;" 
d="M357 747h-42q-42 0 -72 -29.5t-30 -71.5v-692q0 -42 30 -71.5t72 -29.5h42q42 0 71.5 29.5t29.5 71.5v692q0 42 -29.5 71.5t-71.5 29.5zM709 747h-42q-42 0 -71.5 -29.5t-29.5 -71.5v-692q0 -42 29.5 -71.5t71.5 -29.5h42q42 0 72 29.5t30 71.5v692q0 42 -30 71.5
t-72 29.5z" />
    <glyph glyph-name="uniE60F" unicode="&#xe60f;" 
d="M948 -152q0 -16 -11.5 -27.5t-28 -11.5t-28 11.5t-11.5 27.5v4v4q-18 130 -118 215.5t-235 86.5h-2h-2h-2h-2q-134 -1 -233 -84.5t-119 -211.5q1 -5 1 -10v-4q0 -16 -11.5 -28t-28 -12t-28 12t-11.5 28l-1 1v1v2q0 4 1 9q16 119 89.5 210.5t183.5 133.5q-64 41 -102 110
t-38 149q0 128 87.5 217.5t213.5 89.5t213.5 -89.5t87.5 -217.5q0 -80 -38 -149t-102 -110q109 -42 182.5 -132.5t89.5 -207.5q3 -7 3 -13v-4zM743 464q0 96 -67.5 164t-163.5 68t-164 -68t-68 -164t68 -163.5t164 -67.5t163.5 67.5t67.5 163.5z" />
    <glyph glyph-name="uniE610" unicode="&#xe610;" horiz-adv-x="1463" 
d="M73 812h1317q30 0 51.5 -21.5t21.5 -51.5t-21.5 -51.5t-51.5 -21.5h-1317q-30 0 -51.5 21.5t-21.5 51.5t21.5 51.5t51.5 21.5zM73 373h1317q30 0 51.5 -21.5t21.5 -51.5t-21.5 -51.5t-51.5 -21.5h-1317q-30 0 -51.5 21.5t-21.5 51.5t21.5 51.5t51.5 21.5zM73 -66h1317
q30 0 51.5 -21.5t21.5 -51.5t-21.5 -51.5t-51.5 -21.5h-1317q-30 0 -51.5 21.5t-21.5 51.5t21.5 51.5t51.5 21.5z" />
    <glyph glyph-name="uniE611" unicode="&#xe611;" 
d="M876 776h-728q-34 0 -59 -24.5t-25 -59.5v-616q0 -35 25 -59.5t59 -24.5h728q34 0 59 24.5t25 59.5v616q0 35 -25 59.5t-59 24.5zM148 720h728q11 0 19.5 -8.5t8.5 -19.5v-330q-106 87 -217 87q-31 0 -63 -10t-68 -33t-59 -39.5t-64 -49.5q-43 -33 -66 -50t-55 -34
t-54 -17q-70 0 -138 66v410q0 11 8.5 19.5t19.5 8.5zM876 48h-728q-11 0 -19.5 8.5t-8.5 19.5v133q69 -49 138 -49q24 0 48.5 8.5t54.5 27.5t49.5 33.5t56.5 43.5q38 30 58.5 45t52.5 36t58.5 30t50.5 9q33 0 68 -11.5t59.5 -25.5t47 -32t30.5 -26t11 -12l1 1v-211
q0 -11 -8.5 -19.5t-19.5 -8.5zM876 48zM344 384q46 0 79 32.5t33 79t-33 79.5t-79.5 33t-79 -33t-32.5 -79.5t32.5 -79t79.5 -32.5zM344 552q23 0 39.5 -16.5t16.5 -39.5t-16.5 -39.5t-39.5 -16.5t-39.5 16.5t-16.5 39.5t16.5 39.5t39.5 16.5zM344 552z" />
    <glyph glyph-name="uniE612" unicode="&#xe612;" 
d="M711 114l-182 182l182 181q9 9 0 17.5t-17 0.5l-182 -182l-182 182q-9 8 -17.5 -0.5t0.5 -17.5l181 -181l-181 -182q-9 -9 -0.5 -17.5t17.5 -0.5l182 182l182 -182q8 -8 17 0.5t0 17.5z" />
    <glyph glyph-name="uniE613" unicode="&#xe613;" horiz-adv-x="1000" 
d="M484.5 800q-98.5 0 -188.5 -38.5t-154.5 -103t-103 -154.5t-38.5 -188.5t38.5 -188t103 -154.5t154.5 -103.5t188.5 -38.5t188 38.5t154.5 103.5t103.5 154.5t38.5 188t-38.5 188.5t-103.5 154.5t-154.5 103t-188 38.5zM905 331h-187q-2 104 -36 196q62 26 117 69
q101 -113 106 -265zM467 -105q-79 66 -127 164q61 19 129 21v-185h-2zM502 737q90 -75 139 -192q-68 -23 -141 -25v217h2zM554 731q129 -21 224 -113q-51 -39 -108 -62q-42 101 -116 175zM469 737v-217q-73 2 -141 25q49 117 139 192h1h1zM298 556q-56 23 -107 62
q95 92 224 113q-74 -73 -117 -175zM316 516q74 -25 153 -28v-157h-187q2 98 34 185zM469 300v-188q-75 -3 -142 -24q-42 100 -45 212h187zM415 -100q-116 19 -204 95q47 33 99 53q41 -84 105 -148zM500 -105v185q68 -2 129 -21q-48 -99 -127 -164h-2zM659 48q51 -19 99 -53
q-89 -76 -204 -95q64 64 105 148zM642 88q-68 21 -142 24v188h187q-3 -112 -45 -212zM500 331v157q79 3 153 28q31 -87 34 -185h-187zM170 596q55 -43 117 -69q-34 -92 -36 -196h-188q6 152 107 265zM63 300h188q3 -118 47 -223q-58 -22 -111 -60q-56 55 -88.5 128
t-35.5 155zM782 17q-54 38 -111 60q44 105 47 223h187q-3 -82 -35 -155t-88 -128z" />
    <glyph glyph-name="uniE614" unicode="&#xe614;" 
d="M204 655l-204 98v-509l5 -3q4 -2 9.5 -4t17.5 1.5t19 18.5l162 353l1 1l1 3q1 2 1.5 4.5t1 5.5t0.5 6t-1 6.5t-2.5 6.5t-4 6t-6.5 6zM775 577q-19 -3 -53 3t-58 14l-25 7q-8 5 -30.5 9t-41.5 5l-18 2q-24 1 -55.5 -8.5t-51.5 -19.5l-19 -11h-176l-26 -55h117
q-14 -17 -22 -38t-9 -34l-2 -12q1 -28 -4 -51.5t-10 -32.5l-6 -9q-7 -23 7 -37t32 -17l18 -3q31 5 54 20t34 30.5t18 33t8 26t1 10.5q10 18 23.5 28t26 11t23 0t17.5 -3l6 -3l323 -294q12 -11 13.5 -25.5t-2.5 -23.5l-4 -8q-16 -28 -50 -18l-229 169q-18 5 -25 -2.5
t-5 -17.5l2 -10l222 -168q2 -3 4 -7t2.5 -7.5t0.5 -7t-0.5 -6.5t-1.5 -5.5t-2 -4.5t-1.5 -3.5t-1.5 -2.5v-1q-6 -9 -16 -12t-17 0l-8 2l-200 148q-17 1 -23 -7t-3 -17l2 -9l169 -127q22 -24 7 -46q-16 -25 -42 -15l-159 117q-11 2 -17.5 -1t-8.5 -7t-2 -9.5t0.5 -7.5t0.5 -4
l107 -84q-1 -21 -13 -28.5t-24 -3.5l-11 3l-28 22q-3 10 -11.5 17t-15.5 8l-8 1l-31 25q1 22 -19 42q-7 9 -20 12t-22 2t-9 -2q-1 4 -5 7.5t-8 5.5l-3 2q1 14 -3.5 25.5t-8.5 16.5l-5 5q-10 11 -23.5 15t-23 3.5t-9.5 -1.5q0 2 -3 5t-5 6l-3 2q3 19 1 31.5t-6 19.5l-4 6
q-8 15 -25 20t-30 3l-14 -2l-77 102l-22 -49l65 -87l-48 -69q-12 -44 9 -65q26 -25 46 -22.5t34 12.5t13 12q-13 -24 -9.5 -42.5t8.5 -26t7 -8.5q24 -22 44 -19t32.5 12t12.5 12q-12 -24 -11.5 -40t7.5 -24l6 -8q27 -27 49 -19.5t35.5 21.5t13.5 17q-10 -21 -8 -36.5
t10 -24.5l8 -9q26 -19 46 -9t31.5 24t11.5 17q9 -9 23 -13t23 -3l10 1q21 4 35.5 16t18.5 22l3 10q17 -12 33.5 -17t28 -4t20.5 4t13 6l5 4q30 21 30 59q22 -4 39.5 2t24 12t6.5 7q12 10 17.5 26t4.5 26v11q27 1 46 13t27 28q15 31 12 55t-13 39l-11 15l25 60zM816 654
q-1 -1 -2.5 -1.5t-5.5 -4t-5.5 -7.5t-2.5 -11t4 -15q3 -3 45.5 -93t82.5 -178l41 -88q1 -1 2 -2.5t5 -6t7.5 -6.5t10 -3.5t12.5 2.5l14 7v514z" />
    <glyph glyph-name="uniE615" unicode="&#xe615;" 
d="M588 691l-39 -319l-5 -38h38h157l-326 -425l40 318l4 38h-38h-156zM637 811l-443 -580h225l-55 -443l444 580h-226z" />
    <glyph glyph-name="uniE616" unicode="&#xe616;" 
d="M149 814q-28 0 -47.5 -19.5t-19.5 -47.5v-264q0 -27 19.5 -46.5t47.5 -19.5h264q27 0 46.5 19.5t19.5 46.5v264q0 28 -19.5 47.5t-46.5 19.5h-264zM149 351q-28 0 -47.5 -19.5t-19.5 -46.5v-264q0 -28 19.5 -47.5t47.5 -18.5h264q27 0 46.5 19t19.5 47v264
q0 27 -19.5 46.5t-46.5 19.5h-264zM875 777q13 0 21.5 -8.5t8.5 -21.5v-264q0 -12 -8.5 -21t-21.5 -9h-264q-12 0 -21 9t-9 21v264q0 13 9 21.5t21 8.5h264zM875 814h-264q-27 0 -46.5 -19.5t-19.5 -47.5v-264q0 -27 19.5 -46.5t46.5 -19.5h264q28 0 47.5 19.5t19.5 46.5
v264q0 28 -19.5 47.5t-47.5 19.5zM611 351q-27 0 -46.5 -19.5t-19.5 -46.5v-264q0 -28 19.5 -47t46.5 -19h264q28 0 47.5 19t19.5 47v264q0 27 -19.5 46.5t-47.5 19.5h-264z" />
    <glyph glyph-name="uniE617" unicode="&#xe617;" 
d="M439 423zM399 423q0 16 11.5 28t28 12t28 -12t11.5 -28t-11.5 -27.5t-28 -11.5t-28 11.5t-11.5 27.5zM589 423zM549 423q0 16 11.5 28t28 12t28 -12t11.5 -28t-11.5 -27.5t-28 -11.5t-28 11.5t-11.5 27.5zM511 575l-188 77v-118h376v118zM707 450l-65 -33
q-2 -20 -17.5 -33.5t-35.5 -13.5t-35 13t-18 33q-11 3 -23 3q-10 0 -20 -3q-3 -19 -18 -32.5t-35 -13.5t-35 13.5t-18 33.5l-70 35q-8 -28 -8 -58q0 -84 59.5 -143.5t143.5 -59.5t143.5 59.5t59.5 143.5q0 29 -8 56zM512 582l-314 128l308 100l321 -101zM560 592l-48 -25
l-48 25q-49 -12 -86.5 -45.5t-55.5 -80.5l65 -33v-1q3 20 18 33t35 13q21 0 36.5 -14.5t17.5 -35.5q9 4 19 4q12 0 23 -4q1 21 16.5 35.5t36.5 14.5q20 0 35 -12.5t18 -31.5l61 31q-18 47 -55.5 80.5t-87.5 46.5zM212 610h-5q-4 0 -4 4v72q0 4 4 4h5q4 0 4 -4v-72
q0 -4 -4 -4zM190 360v186h2v-187l4 -2v187h2v-188l6 -3v201h1v-202l7 -3v199h1v-200l5 -2v190h2v-191l6 -3v210h1v-211l4 -2v6v232q0 9 -6 15t-15 6t-15.5 -6t-6.5 -15v-216zM512 191q-109 0 -201 -53.5t-146 -146t-54 -201.5v-2h802v2q0 109 -54 201.5t-146 146t-201 53.5z
M512 160l38 -38l-38 -38l-38 38zM512 -187l-49 201l49 49l49 -49z" />
    <glyph glyph-name="uniE618" unicode="&#xe618;" horiz-adv-x="1060" 
d="M963 392q-10 0 -17 -7t-7 -17v-433q0 -20 -14.5 -34t-34.5 -14h-731q-20 0 -34 14t-14 34v706q0 20 14 34t34 14h471q10 0 17 7.5t7 17.5t-7 17t-17 7h-475q-39 0 -66 -27t-27 -66v-714q0 -39 27 -66t66 -27h740q38 0 65.5 27t27.5 66v437q0 10 -7.5 17t-17.5 7zM511 80
l463 463q21 21 19 52t-25 54l-44 44q-23 23 -53.5 24.5t-51.5 -19.5l-464 -463zM853 664q8 8 20 7t20 -9l44 -44q9 -9 9.5 -20.5t-7.5 -19.5l-51 -52l-85 87zM852 490l-345 -345l-86 86l345 346zM355 234l-47 -175q-4 -12 5 -21t21 -6l175 48l-36 36l-113 -31l31 113z
M355 234z" />
    <glyph glyph-name="uniE619" unicode="&#xe619;" 
d="M512 785q-99 0 -188.5 -38.5t-154.5 -103.5t-103.5 -154.5t-38.5 -188.5t38.5 -188.5t103.5 -154.5t154.5 -103.5t188.5 -38.5t188.5 38.5t154.5 103.5t103.5 154.5t38.5 188.5t-38.5 188.5t-103.5 154.5t-154.5 103.5t-188.5 38.5zM512 -131q-117 0 -216.5 57.5
t-157 157t-57.5 216.5t57.5 216.5t157 157t216.5 57.5t216.5 -57.5t157 -157t57.5 -216.5t-57.5 -216.5t-157 -157t-216.5 -57.5zM404 623h216l-54 -107h-108zM409 223l206 -150l32 38l-7 25l-212 154zM591 306l-52 183h-54l-25 -88zM403 201l-26 -90l135 -161l89 106z
M454 379l-19 -67l195 -142l-29 102z" />
    <glyph glyph-name="uniE61A" unicode="&#xe61a;" 
d="M873 483l-55 30l-194 -358l-14 -92l69 62zM819 549l83 -45q6 -3 8 -9.5t-1 -12.5l-203 -374q-1 -3 -3 -5l-104 -93q-6 -6 -14 -5q-6 1 -10 6.5t-3 12.5l21 138q0 3 2 6l202 374q3 6 9.5 8t12.5 -1zM615 145q-6 -2 -12.5 0.5t-8.5 8.5t0.5 12t8.5 9l12 4q28 5 53.5 -8.5
t35.5 -39.5q2 -6 3.5 -12.5t-2 -12t-10 -7t-12 2.5t-7.5 10q0 4 -2 7q-6 15 -21.5 23.5t-30.5 4.5q-4 0 -7 -2zM574 29q3 6 9.5 7.5t12 -1.5t7.5 -9.5t-1 -11.5l-18 -34q-3 -6 -9.5 -7.5t-12 1.5t-7.5 9.5t1 11.5zM902 504q6 -3 8 -9.5t-1 -12.5t-9.5 -7.5t-12.5 1.5l-21 11
l-21 11l-20 11l-21 11q-6 4 -8 10t1 12l14 26l14 26l14 26l14 26q3 6 9.5 8t12.5 -1l21 -12l20 -11l21 -11l21 -11q6 -3 8 -9.5t-1 -12.5l-14 -26l-14 -26q-3 -6 -9.5 -7.5t-12.5 1.5t-8 9t1 12l14 26l7 12l-7 4l-21 11l-20 11l-7 4l-7 -12l-14 -26l-14 -26l-6 -12l7 -4
l21 -11l20 -11zM989 549q3 6 9.5 8t12 -1.5t7.5 -9.5t-1 -12l-95 -178q-4 -5 -10 -7t-12 1t-8 9.5t1 12.5zM992 522q6 -3 8 -9.5t-1 -12t-9.5 -7.5t-12.5 1l-62 34q-6 3 -8 9t1.5 12t9.5 8t12 -1zM750 550v230h-672v-960h736v336q0 7 4.5 11.5t11 4.5t11.5 -4.5t5 -11.5
v-350v-2q0 -7 -5 -11.5t-11 -4.5h-768q-7 0 -11.5 4.5t-4.5 11.5v990v2q0 7 4.5 11.5t11.5 4.5h704q6 0 10.5 -4.5t4.5 -11.5l1 -246q0 -10 -8 -14.5t-16 -0.5t-8 15zM750 129v-261q0 -7 4.5 -11.5t11 -4.5t11.5 4.5t5 11.5v262q0 13 -8 17t-16 -1.5t-8 -16.5zM190 556
q-7 0 -11.5 4.5t-4.5 11.5t4.5 11.5t11.5 4.5h449q7 0 11.5 -4.5t4.5 -11.5t-4.5 -11.5t-11.5 -4.5h-449zM190 460q-7 0 -11.5 4.5t-4.5 11.5t4.5 11.5t11.5 4.5h449q7 0 11.5 -4.5t4.5 -11.5t-4.5 -11.5t-11.5 -4.5h-449zM190 364q-7 0 -11.5 4.5t-4.5 11.5t4.5 11.5
t11.5 4.5h383q6 0 11 -4.5t5 -11.5t-5 -11.5t-11 -4.5h-383zM190 268q-7 0 -11.5 4.5t-4.5 11.5t4.5 11.5t11.5 4.5h290q7 0 11.5 -4.5t4.5 -11.5t-4.5 -11.5t-11.5 -4.5h-290zM291 156q33 0 57 -24l1 -1q22 -23 22 -55q0 -33 -23.5 -56.5t-56.5 -23.5t-56.5 23.5
t-23.5 56.5t23 56h1q23 24 56 24zM325 110q-14 14 -34 14t-34 -14t-14 -34t14 -34t34 -14t34 14t14 34q0 19 -13 33z" />
    <glyph glyph-name="uniE61B" unicode="&#xe61b;" 
d="M936 546h-125l-138 -376q-3 -8 -9 -14q-12 -14 -31 -14h-378q-17 0 -29.5 12t-12.5 29t12.5 29t29.5 12h350l19 51h-432q-17 0 -29 12t-12 29t12 29.5t29 12.5h462l18 48h-520q-17 0 -29 12t-12 29t12 29t29 12h550l42 113q9 27 37 27q4 1 7 1h148q17 0 29 -12t12 -29
t-12 -29.5t-29 -12.5zM332.5 88q21.5 0 37 -15t15.5 -36.5t-15.5 -37t-37 -15.5t-36.5 15.5t-15 37t15 36.5t36.5 15zM656.5 110q28.5 0 48.5 -20t20 -49t-20 -49t-48.5 -20t-49 20t-20.5 49t20.5 49t49 20z" />
    <glyph glyph-name="uniE61C" unicode="&#xe61c;" 
d="M87 462h165v-35h-126v-109h116v-35h-116v-148h-39v327zM308 458q31 7 76 7q61 0 89 -27q24 -23 24 -62q0 -31 -16 -52.5t-42 -31.5v-1q34 -12 45 -66q17 -76 24 -90h-41q-6 12 -20 78q-7 34 -21 48.5t-41 15.5h-37v-142h-40v323zM348 309h40q32 0 50.5 17t18.5 45
q0 61 -70 61q-27 0 -39 -4v-119zM712 289h-119v-118h132v-36h-172v327h166v-35h-126v-103h119v-35zM936 289h-120v-118h133v-36h-172v327h166v-35h-127v-103h120v-35z" />
    <glyph glyph-name="uniE61D" unicode="&#xe61d;" 
d="M88 334v-1h305h-1q3 1 9 2t21 7.5t26.5 15t21 26t9.5 38.5v304q-1 22 -10 38.5t-21.5 25t-25.5 14t-22 7.5l-8 1h-392v-389q1 -4 2 -10t7.5 -21.5t15 -27t25.5 -21t38 -9.5zM632 810q-3 0 -9 -1t-20.5 -7t-26 -14.5t-21 -25t-10.5 -38.5v-305v1q0 -22 9 -38.5t22 -25.5
t26 -15t21 -8l9 -2h-1h305v1q21 0 37.5 9t25.5 22t15 26t8 22l2 10v389h-392zM958 432q-5 -35 -42 -35h-265q-7 0 -14.5 2.5t-16.5 13t-9 27.5v261q0 38 35 44h312v-313zM393 267h1h-305v-1q-61 0 -84 -71l-4 -18v-389h392q3 0 9 1t20.5 7t26 14.5t21 25t10.5 38.5v304
q0 21 -9.5 38t-21.5 26t-26 15t-21.5 8t-8.5 2zM936 266v1h-305h1q-3 -1 -9 -2t-21 -7.5t-26.5 -15t-21 -26t-9.5 -38.5v-304q0 -22 9.5 -38.5t22 -25t25.5 -14t21 -7.5l9 -1h392v389q-1 4 -2 10t-7.5 21.5t-15 27t-25.5 21t-38 9.5z" />
    <glyph glyph-name="uniE61E" unicode="&#xe61e;" 
d="M523 623q-10 0 -17 7t-7 17v77q0 10 7 17.5t17 7.5t17 -7.5t7 -17.5v-77q0 -10 -7 -17t-17 -7zM362 586q-14 0 -21 12l-39 67q-5 9 -2.5 18.5t11.5 14.5t18.5 2.5t14.5 -10.5l39 -68q5 -8 2.5 -18t-11.5 -15q-6 -3 -12 -3zM241 474q-7 0 -12 3l-68 39q-8 5 -11 14.5
t2 18.5t15 11.5t18 -2.5l68 -39q8 -5 11 -14.5t-2 -18.5q-7 -12 -21 -12zM192 316h-78q-10 0 -17 7t-7 17t7 17t17 7h78q10 0 17 -7t7 -17t-7 -17t-17 -7zM161 116q-14 0 -21 12q-5 9 -2.5 18.5t11.5 14.5l67 39q9 5 18.5 2.5t14.5 -11.5t2.5 -18.5t-11.5 -14.5l-67 -39
q-5 -3 -12 -3zM848 95q-6 0 -12 3l-67 39q-9 5 -11.5 14.5t2.5 18t14.5 11.5t18.5 -2l67 -39q9 -5 11.5 -15t-2.5 -18q-7 -12 -21 -12zM907 291h-77q-10 0 -17 7.5t-7 17.5t7 17t17 7h77q10 0 17.5 -7t7.5 -17t-7.5 -17.5t-17.5 -7.5zM793 453q-14 0 -21 12q-5 8 -2.5 18
t11.5 15l67 38q9 5 18.5 2.5t14.5 -11t2.5 -18t-11.5 -14.5l-67 -39q-5 -3 -12 -3zM681 574q-7 0 -12 3q-9 5 -11.5 14.5t2.5 18.5l39 67q5 9 14.5 11.5t18 -2.5t11.5 -14.5t-2 -18.5l-39 -67q-7 -12 -21 -12zM734 324q0 93 -66 159t-159 66t-158.5 -66t-65.5 -159l2 -21
q-2 -3 2 -27t26 -73.5t60 -98.5q11 -14 14 -41t2 -38.5t-2 -19.5h104h32h105q-1 0 -2.5 17.5t2 42.5t14.5 39q38 49 60 98.5t26 73.5t2 27q0 1 1 9t1 12zM483 44v108q0 3 -1 6l-43 85q5 0 8 1q10 4 20 13q11 -13 25 -16q19 -3 37 16q2 -2 3 -4q10 -14 23 -14h3q4 1 9 2
l-43 -83q-1 -3 -1 -6v-108h-40zM470 307h2h1q4 -1 5 -6q0 -9 -8 -21q-7 20 0 27zM534 311q2 3 4 3t2 -1q4 -7 -7 -27q-3 16 1 25zM694 315l-3 -26h1q-13 -76 -79 -161q-23 -31 -24 -84h-39v104l51 99q6 13 -6 19t-18 -6q-11 -6 -20 -7q-7 -1 -14 8q-2 3 -4 8q23 33 14 51
q-5 8 -15.5 7.5t-15.5 -10.5q-9 -18 1 -46q-16 -18 -29 -16q-10 2 -17 12q15 18 14 34q0 15 -15 20q-9 2 -16 -4q-12 -13 -3 -41q1 -4 3 -8q-9 -8 -18 -11q-5 -2 -11 -1l-1 4q-5 10 -16 7q-1 -1 -2 -1h-1l-1 -1v0q-10 -7 -5 -18l50 -99v-104h-25q-2 53 -24 83
q-66 85 -79 162l-3 26q-1 7 -1 9q0 77 54.5 131.5t131.5 54.5t131.5 -54.5t54.5 -131.5q0 -2 -1 -9zM391 -32h10v-18h-10v-18h10v-17h-9q1 -17 15 -29t35 -14q9 -19 30 -19h75q21 0 29 19q21 2 35.5 14t15.5 29h-8v17h9v18h-9v18h9v19h-237v-19z" />
    <glyph glyph-name="uniE61F" unicode="&#xe61f;" 
d="M612 504.5q0 42.5 -30 73t-72 30.5t-72 -30.5t-30 -73t30 -73t72 -30.5t72 30.5t30 73zM436 504q0 31 21.5 53t52.5 22t52.5 -22t21.5 -53t-21.5 -53t-52.5 -22t-52.5 22t-21.5 53zM510 39l10 13q12 13 28.5 34t55.5 76.5t68 107t53 115t23 111.5q0 103 -70 176.5
t-168 73.5q-99 0 -168.5 -73.5t-69.5 -176.5q0 -48 23.5 -111.5t52.5 -115t67.5 -106.5t55.5 -76.5t28 -34.5zM510 717q87 0 148.5 -64.5t61.5 -156.5q1 -48 -24.5 -113t-65.5 -127.5t-67.5 -101.5t-52.5 -71q-26 32 -53.5 71t-67 101.5t-64.5 127.5t-25 113
q0 92 61.5 156.5t148.5 64.5zM765 226h-84v-28h56l56 -211h-562l56 211h42v28h-70l-70 -267h646z" />
    <glyph glyph-name="uniE620" unicode="&#xe620;" 
d="M319.5 94q-60.5 0 -103 -43t-42.5 -103.5t42.5 -103t103 -42.5t103.5 42.5t43 103t-43 103.5t-103.5 43zM320 -86q-14 0 -24 10t-10 24t10 24t24 10t23.5 -10t9.5 -24t-9.5 -24t-23.5 -10zM710.5 94q-60.5 0 -103 -43t-42.5 -103.5t42.5 -103t103 -42.5t103.5 42.5
t43 103t-43 103.5t-103.5 43zM711 -86q-14 0 -24 10t-10 24t10 24t24 10t23.5 -10t9.5 -24t-9.5 -24t-23.5 -10zM994 603q-4 3 -8 4q-10 4 -20 4h-310q-24 0 -41 -17.5t-16 -41.5q1 -23 17.5 -38.5t38.5 -15.5h172q21 0 31.5 -18t-0.5 -36q-10 -18 -31 -18h-314
q-25 0 -42 -17.5t-15 -41.5q1 -22 17 -37.5t39 -15.5h188q21 0 31 -18t0 -36t-31 -18h-317q-12 0 -21.5 7t-13.5 19l-127 476q-2 9 -7 16q-16 28 -49 28h-106q-25 0 -42 -17.5t-15 -41.5q1 -23 17 -38.5t39 -15.5h65l135 -503q8 -30 37 -40q9 -3 20 -3h438q17 0 32 10
q11 7 17 19l213 368q12 21 6 43.5t-27 33.5z" />
    <glyph glyph-name="uniE621" unicode="&#xe621;" 
d="M306 649h171l-147 -198h-192zM696 415h189l-325 -385zM374 451l138 186l137 -186h-275zM659 415l-147 -418l-148 418h295zM327 415l136 -385l-325 385h189zM885 451h-192l-146 198h171zM937 444l-198 234q-5 7 -13 7h-428q-9 0 -14 -7l-197 -234q-8 -8 -3 -18q1 -2 3 -4
l425 -505l425 505l2 4q5 10 -2 18z" />
    <glyph glyph-name="uniE622" unicode="&#xe622;" 
d="M512 896q-139 0 -257 -68.5t-186.5 -186.5t-68.5 -257t68.5 -257t186.5 -186.5t257 -68.5t257 68.5t186.5 186.5t68.5 257t-68.5 257t-186.5 186.5t-257 68.5zM512 -96q-98 0 -186.5 38t-153 102.5t-102.5 153t-38 186.5t38 186.5t102.5 153t153 102.5t186.5 38
t186.5 -38t153 -102.5t102.5 -153t38 -186.5t-38 -186.5t-102.5 -153t-153 -102.5t-186.5 -38zM733 372l-208 317q-4 7 -13 7t-13 -7l-208 -317h-1q-4 -7 -1.5 -14t9.5 -9l1 -1q9 -3 37.5 -35.5t65.5 -82.5h-34q-13 0 -22.5 -9.5t-9.5 -22.5v-32q0 -14 9.5 -23t22.5 -9h288
q13 0 22.5 9t9.5 23v32q0 13 -9.5 22.5t-22.5 9.5h-34q37 50 65.5 82.5t37.5 35.5q7 3 10 10.5t-2 13.5zM651.5 193q4.5 -5 4.5 -11.5t-4.5 -11t-11.5 -4.5h-256q-7 0 -11.5 4.5t-4.5 11t4.5 11.5t11.5 5h256q7 0 11.5 -5zM583 231h-142q-75 105 -115 137l170 259v-179
q0 -7 4.5 -11.5t11.5 -4.5t11.5 4.5t4.5 11.5v179l170 -259q-40 -32 -115 -137zM672 104h-320q-7 0 -11.5 -5t-4.5 -11.5t4.5 -11t11.5 -4.5h320q7 0 11.5 4.5t4.5 11t-4.5 11.5t-11.5 5z" />
    <glyph glyph-name="uniE623" unicode="&#xe623;" horiz-adv-x="1179" 
d="M1104 812h-1029q-31 0 -53 -22t-22 -53v-708q0 -30 22 -52t53 -22h55q6 -16 19 -31q4 -3 9 -5q107 -27 122 -70q6 -17 -5 -32q-4 -6 -3.5 -13t6.5 -11.5t13.5 -4t11.5 6.5q23 29 11 65q-20 60 -142 93q-9 10 -9 20q0 11 13 20l1 1q3 2 7 5q1 0 2 1l12 4q14 4 35 4
q47 0 108 -19q13 -5 21 -9q2 -2 6 -4q13 -7 26 -16h1l1 -1q37 -26 63.5 -50.5t36.5 -40t17 -29t5 -18t-1 -6.5v0q-3 -7 -1 -14t9 -11q4 -2 8 -2q11 0 16 10q2 5 3.5 11.5t-0.5 21.5t-10 31.5t-29 41.5t-53 51h316q-32 -26 -53 -51t-29.5 -41.5t-10.5 -31.5t-0.5 -21.5
t4.5 -11.5q5 -10 16 -10q4 0 8 2q7 3 9 10t-1 14q-1 1 -1 3t1 9t4 15t11.5 20.5t21 26.5t34.5 32.5t50 38.5q13 9 28 18l5 2q9 5 22 11q61 18 108 18q20 0 35 -4q8 -3 11 -4q0 -1 1 -1h1q5 -3 8 -6h1q12 -9 12 -20v-1q0 -9 -8 -19q-122 -33 -142 -93q-12 -36 10 -65
q5 -6 12.5 -6.5t13 4t6.5 11.5t-4 13q-10 14 -4 32q14 42 122 70q5 2 8 5q14 15 19 31q30 1 51.5 22.5t21.5 51.5v708q0 31 -22 53t-52 22zM190 469h158q22 -74 -8 -159l-2 -5q-9 -25 -13 -41.5t-0.5 -53t20.5 -80.5q25 -64 -1 -103q-1 1 -3 1l-2 1q-31 12 -61 16q-1 0 -3 1
h-2q-14 1 -27 1h-6q-10 0 -20 -1q-1 0 -3 -0.5t-3 -0.5l-2 -1h-2q15 68 -9 103q-16 25 -17 85t17 116q13 37 -11 121zM891 130q17 44 20 80.5t-0.5 53t-12.5 41.5l-2 5q-30 85 -9 159h159q-24 -84 -11 -121q18 -56 17 -116.5t-18 -84.5q-23 -35 -9 -103l-3 1h-2h-2
q-11 2 -24 2h-1h-2q-48 0 -99 -20q-26 39 -1 103zM1142 29q0 -15 -10.5 -26.5t-26.5 -11.5q-4 10 -11 19l-2 2l-1 1l-1 1q-3 4 -8 7q-2 1 -4 3q-3 2 -8 5l-2 1l-1 1h-1h-1v1q-20 67 -1 95q22 34 23.5 104t-19.5 129q-9 29 16 109h7q7 0 12 5.5t5 13t-5 12.5t-12 5h-21h-195
h-16q-7 0 -12.5 -5t-5.5 -13q0 -10 10 -15q-21 -83 11 -174l2 -5q8 -22 11 -36t0 -45t-17 -69q-30 -77 1 -131q-18 -9 -36 -21h-410q-1 0 -2 0.5t-2 1.5q-14 9 -29 17q-1 1 -2 1.5t-2 1.5q32 53 2 130q-15 38 -18 69t0 45t11 36l2 5q33 91 12 174q9 5 9 15q0 8 -5 13t-12 5
h-16h-196h-20q-7 0 -12.5 -5t-5.5 -12.5t5.5 -13t12.5 -5.5h7q25 -81 15 -109q-20 -58 -18.5 -129t23.5 -104q18 -28 -2 -96h-1q-1 -1 -2 -1.5t-2 -1.5q-5 -2 -8 -4l-3 -3q-5 -4 -9 -7q0 -1 -0.5 -1t-0.5 -0.5t-1 -1t-1 -1.5q-2 -2 -6 -8t-6 -11h-56q-16 0 -27 11t-11 27
v708q0 17 11 28t27 11h1030q16 0 27 -11t11 -28v-708zM551 552.5q0 7.5 -5 12.5t-13 5q-60 0 -136 56q-10 7 -13 9q-7 4 -14 2t-10.5 -8.5t-2 -13.5t8.5 -11q2 -1 10 -7q85 -62 157 -62q8 0 13 5t5 12.5zM807 635q-3 -2 -13 -9q-76 -56 -137 -56q-7 0 -12 -5t-5 -12.5
t5 -12.5t12 -5q73 0 158 62q8 6 10 7q7 4 8.5 11t-2 13.5t-11 8.5t-13.5 -2zM717 150l-121 54q-7 3 -15 -1l-106 -53q-7 -4 -9 -11t1 -13.5t10 -9t14 1.5l99 50l112 -51q3 -1 7 -1q12 0 16 10q4 7 1 14t-9 10z" />
    <glyph glyph-name="uniE624" unicode="&#xe624;" 
d="M307 576q9 -24 25 -38q18 -17 40 -17t39 17q16 14 25 38q16 13 18 32q3 21 -6 32q-2 1 -4 3q-5 29 -23.5 46t-47.5 17q-30 0 -49.5 -17t-24.5 -46l-3 -3q-10 -11 -7 -32q3 -19 18 -32zM328 617l1 14q3 45 44 45q38 0 42 -45v-14h9v-5q-1 -9 -8 -13l-5 -2l-2 -6
q-6 -18 -16 -28.5t-21 -10.5q-12 0 -22 10.5t-16 28.5l-2 6l-5 2q-6 4 -8 13v5h9zM474 173v25q19 5 31.5 19.5t13.5 33.5q43 52 77 94q36 43 55 67q12 15 18 23l6 6q1 1 1 2q9 12 -1 21q-11 10 -22 0v-1l-133 -163v144q0 30 -20 54q-20 23 -50 29l-36 8l-42 -85l-43 85
l-36 -8q-30 -6 -50 -29q-19 -24 -19 -54v-187q0 -21 12.5 -37.5t32.5 -21.5v-25h205zM254 257v187q0 19 12.5 34t32.5 19l13 3l60 -119l59 119l13 -3q20 -4 32.5 -19t12.5 -34v-187q0 -12 -9 -21t-21 -9h-15v-23h-144v23h-16q-12 0 -21 9t-9 21zM182 204h2q6 0 10.5 4.5
t4.5 11t-4.5 11t-10.5 4.5h-2q-42 0 -64 31q-21 29 -21 80v344q0 46 32.5 78.5t78.5 32.5h604q46 0 78.5 -32.5t32.5 -78.5v-344q0 -46 -32.5 -78.5t-78.5 -32.5h-253q-7 0 -11.5 -4.5t-4.5 -11t4.5 -11t11.5 -4.5h253q59 0 100.5 41.5t41.5 100.5v344q0 59 -41.5 100.5
t-100.5 41.5h-604q-58 0 -100 -41.5t-42 -100.5v-344q0 -66 31.5 -104t84.5 -38zM259 160h-95q-40 0 -69 -29t-29 -70v-124h291v124q0 41 -28.5 70t-69.5 29zM326 -33h-229v94q0 28 20 48t47 20h95q28 0 47.5 -20t19.5 -48v-94zM559 160h-95q-40 0 -69 -29t-29 -70v-124h291
v124q0 41 -29 70t-69 29zM626 -33h-229v94q0 28 20 48t47 20h95q28 0 47.5 -20t19.5 -48v-94zM859 160h-94q-41 0 -70 -29t-29 -70v-124h291v124q0 41 -29 70t-69 29zM926 -33h-229v94q0 28 20 48t48 20h94q28 0 47.5 -20t19.5 -48v-94z" />
    <glyph glyph-name="uniE625" unicode="&#xe625;" 
d="M935 -144h-122q-8 0 -14 6t-6 14t6 14t14 6h102v102q0 8 6 14t14 6t14 -6t6 -14v-122q0 -8 -6 -14t-14 -6zM935 99q-8 0 -14 6t-6 14v122q0 9 6 14.5t14 5.5t14 -5.5t6 -14.5v-122q0 -8 -6 -14t-14 -6zM935 343q-8 0 -14 6t-6 14v122q0 8 6 14t14 6t14 -6t6 -14v-122
q0 -8 -6 -14t-14 -6zM935 586q-8 0 -14 6t-6 14v102h-102q-8 0 -14 6t-6 14t6 14t14 6h122q8 0 14 -6t6 -14v-122q0 -8 -6 -14t-14 -6zM692 -144h-122q-9 0 -14.5 6t-5.5 14t5.5 14t14.5 6h122q8 0 14 -6t6 -14t-6 -14t-14 -6zM692 708h-122q-9 0 -14.5 6t-5.5 14t5.5 14
t14.5 6h122q8 0 14 -6t6 -14t-6 -14t-14 -6zM669 343q16 0 28 -12t12 -29t-12 -29t-28 -12h-122v-121q0 -17 -12 -29t-28.5 -12t-28.5 12t-12 29v121h-122q-17 0 -28.5 12t-11.5 29t11.5 29t28.5 12h122v121q0 17 12 29t28.5 12t28.5 -12t12 -29v-121h122zM448 708h-122
q-8 0 -14 6t-6 14t6 14t14 6h122q8 0 14 -6t6 -14t-6 -14t-14 -6zM205 -144h-122q-8 0 -14 6t-6 14v122q0 8 6 14t14 6t14 -6t6 -14v-102h102q8 0 14 -6t6 -14t-6 -14t-14 -6zM205 708h-102v-102q0 -8 -6 -14t-14 -6t-14 6t-6 14v122q0 8 6 14t14 6h122q8 0 14 -6t6 -14
t-6 -14t-14 -6zM83 505q8 0 14 -6t6 -14v-122q0 -8 -6 -14t-14 -6t-14 6t-6 14v122q0 8 6 14t14 6zM83 261q8 0 14 -5.5t6 -14.5v-122q0 -8 -6 -14t-14 -6t-14 6t-6 14v122q0 9 6 14.5t14 5.5zM326 -104h122q8 0 14 -6t6 -14t-6 -14t-14 -6h-122q-8 0 -14 6t-6 14t6 14t14 6
z" />
    <glyph glyph-name="uniE626" unicode="&#xe626;" 
d="M944 649q-22 32 -60 32h-618h-64l-6 38l-7 47q-2 15 -17 15h-89q-7 0 -12 -5.5t-5 -12.5t5 -12t12 -5h74l5 -33l9 -50q0 -3 1 -5l13 -73v-1l65 -286q0 -1 1 -1q12 -42 36 -65t56 -23h383q59 0 100 85v1l125 286v1q14 36 -7 67zM919 595l-125 -286q-31 -65 -68 -65h-383
q-41 0 -59 62l-65 286l-10 54h57h618q20 0 31 -17q11 -15 4 -34zM341 191q-39 0 -66.5 -28t-27.5 -67t27.5 -66.5t66.5 -27.5t66.5 27.5t27.5 66.5t-27.5 67t-66.5 28zM340.5 36q-24.5 0 -41.5 18t-17 42.5t17 42t41.5 17.5t42 -17.5t17.5 -42t-17.5 -42.5t-42 -18z
M727.5 191q-38.5 0 -66 -28t-27.5 -67t27.5 -66.5t66 -27.5t66 27.5t27.5 66.5t-27.5 67t-66 28zM727.5 36q-24.5 0 -42 18t-17.5 42.5t17.5 42t42 17.5t42 -17.5t17.5 -42t-17.5 -42.5t-42 -18zM756 584l-286 -213l-92 107q-4 5 -11 5.5t-12.5 -4t-6 -11.5t3.5 -13
l102 -119q5 -6 13 -6q6 0 10 3l300 223q5 4 6 11.5t-3 13t-11 6.5t-13 -3z" />
    <glyph glyph-name="uniE627" unicode="&#xe627;" 
d="M284 -76q-5 0 -9 3q-13 8 -4 22q10 17 30 28.5t39.5 17t40.5 8t31 2.5h15h423q27 0 46 19t19 46v516q0 27 -19 46t-46 19h-678q-27 0 -46 -19t-19 -46v-516q0 -25 17 -43.5t42 -21.5h6h51q7 0 11.5 -4.5t4.5 -11.5t-4.5 -11.5t-11.5 -4.5h-51h-9q-38 4 -63 31.5t-25 65.5
v516q0 40 28.5 68.5t68.5 28.5h678q40 0 68.5 -28.5t28.5 -68.5v-516q0 -40 -28.5 -68.5t-68.5 -28.5h-423q-33 1 -73.5 -8.5t-55.5 -33.5q-5 -7 -14 -7zM492 159q-5 0 -9.5 4.5t-4.5 9.5v9q0 5 -1.5 10.5t-12.5 15t-32 13.5q-52 7 -60 27q-3 7 -2 23q3 29 28 58l7 7
q4 7 6 17q-7 8 -5 18q1 7 1 12q1 16 -1 27q0 2 -1 5q-2 7 -6 11v1q-2 2 -6.5 4.5t-20 7.5t-35.5 7h-14q0 -2 -1 -3q0 -3 -2 -6q-4 -5 -10 -10q-8 -8 -8 -15q-4 -21 0 -40q2 -13 -5 -20q2 -9 6 -16l7 -7q25 -29 27 -58q2 -16 -1 -23q-8 -20 -61 -27q-13 -3 -22.5 -7.5
t-13.5 -9t-6.5 -10t-2.5 -6.5v-4q0 -6 -3.5 -10.5t-9.5 -4.5q-6 -1 -10.5 3t-4.5 10q-2 19 14 39.5t55 27.5q29 4 39 10q0 4 -1 10q-2 19 -21 41q-6 7 -8 10q-11 16 -12 33q0 9 6 15q-4 25 0 47q0 18 18 33q1 2 2 2q-2 4 -1 9q3 14 22 15h24q60 -5 82 -29q8 -10 12 -23
q1 -5 1 -8q2 -13 1 -32q0 -6 -1 -13q3 -4 4 -8q1 -3 1 -7q0 -18 -11 -34q-3 -4 -9 -10q-19 -22 -20 -41q-1 -7 -1 -10q0 -1 1 -2q14 -5 37 -8q40 -8 56 -28.5t14 -39.5v-7q1 -6 -3.5 -10t-9.5 -5h-1zM783 409h-218q-6 0 -10 4.5t-4 10t4 10t10 4.5h218q6 0 10 -4.5t4 -10
t-4 -10t-10 -4.5zM783 289h-218q-6 0 -10 4.5t-4 10t4 10t10 4.5h218q6 0 10 -4.5t4 -10t-4 -10t-10 -4.5zM783 173h-218q-6 0 -10 4t-4 10t4 10.5t10 4.5h218q6 0 10 -4.5t4 -10.5t-4 -10t-10 -4z" />
    <glyph glyph-name="uniE628" unicode="&#xe628;" 
d="M764 484h-420q-8 0 -14 -6t-6 -14t6 -14t14 -6h420q9 0 14.5 6t5.5 14t-5.5 14t-14.5 6zM764 351h-420q-8 0 -14 -6t-6 -14t6 -14t14 -6h420q9 0 14.5 6t5.5 14t-5.5 14t-14.5 6zM764 219h-420q-8 0 -14 -6t-6 -14t6 -14t14 -6h420q9 0 14.5 6t5.5 14t-5.5 14t-14.5 6z
M260 219h-25q-8 0 -14 -6t-6 -14t6 -14t14 -6h25q8 0 14 6t6 14t-6 14t-14 6zM764 86h-420q-8 0 -14 -5.5t-6 -14t6 -14t14 -5.5h420q9 0 14.5 5.5t5.5 14t-5.5 14t-14.5 5.5zM260 86h-25q-8 0 -14 -5.5t-6 -14t6 -14t14 -5.5h25q8 0 14 5.5t6 14t-6 14t-14 5.5zM260 351
h-25q-8 0 -14 -5.5t-6 -14t6 -14t14 -5.5h25q8 0 14 5.5t6 14t-6 14t-14 5.5zM260 484h-25q-8 0 -14 -5.5t-6 -14t6 -14.5t14 -6h25q8 0 14 6t6 14.5t-6 14t-14 5.5zM904 801h-784q-24 0 -41 -17t-17 -41v-886q0 -24 17 -41t41 -17h784q24 0 41 17t17 41v886q0 24 -17 41
t-41 17zM920 -143q0 -6 -4.5 -11t-11.5 -5h-784q-7 0 -11.5 5t-4.5 11v886q0 6 4.5 11t11.5 5h784q7 0 11.5 -5t4.5 -11v-886zM409 614h202q11 0 19 8.5t8 19.5t-8 19.5t-19 8.5h-202q-11 0 -19.5 -8.5t-8.5 -19.5t8.5 -19.5t19.5 -8.5z" />
    <glyph glyph-name="uniE629" unicode="&#xe629;" 
d="M928 268q-5 19 -23 46.5t-32.5 58.5t-14.5 68t17.5 81.5t34.5 71.5l18 26l-186 192q-7 -6 -20.5 -14.5t-49.5 -22.5t-64 -14q-23 0 -56.5 12.5t-55.5 25.5l-22 13q-9 -6 -23.5 -14.5t-52 -22.5t-66 -14t-62 12.5t-52.5 25.5l-20 13l-198 -192q8 -11 19.5 -29t31 -65.5
t19.5 -84.5q0 -36 -14.5 -68t-30.5 -58.5t-19 -46.5q-13 -87 7 -156t52 -106t86 -65.5t82.5 -36.5t68.5 -16q14 -3 18 -4q40 -20 78.5 -44t56.5 -38l19 -14q8 7 23.5 18.5t61 37.5t87.5 40q5 2 37.5 11.5t65 21t72 40t66.5 65.5t40 101.5t1 144.5zM473.5 -33
q-97.5 0 -180 48t-130.5 130.5t-48 180t48 180t130.5 130.5t180 48t180 -48t130.5 -130.5t48 -180t-48 -180t-130.5 -130.5t-180 -48zM473.5 639q-84.5 0 -157 -45t-114.5 -120.5t-42 -160.5q0 -129 91.5 -215t222 -86t222 86t91.5 215q0 85 -42 160.5t-114.5 120.5t-157 45
zM723 447q0 -14 -12 -26t-26 -12q-13 0 -13 6l-51 -89l51 -90h13q14 0 26 -12t12 -26.5t-12 -26.5t-26.5 -12t-26.5 12t-12 27h-96l-57 -90q19 -10 19 -32q0 -14 -12 -26t-26.5 -12t-26.5 12t-12 26q0 22 19 32l-51 96h-102q0 -14 -12 -26t-26.5 -12t-26.5 12t-12 26
t11.5 23t26.5 9q13 0 20 -6l51 89l-51 96q-4 0 -10 -3t-10 -3q-14 0 -26 12t-12 26.5t12 26.5t26.5 12t26.5 -12t12 -27h102l51 90q-12 13 -12 32q0 14 12 26t26 12q32 0 32 -38q0 -16 -19 -26l51 -89h102q0 14 12 26t27 12q18 -5 28 -17.5t10 -27.5z" />
    <glyph glyph-name="uniE62A" unicode="&#xe62a;" 
d="M953 300l-198 85q-14 7 -8 20l13 27q6 14 20 7l101 -47q-31 122 -131 201.5t-230 79.5q-99 0 -183 -48t-135 -130l-58 18q57 100 157 160t219 60q83 0 154.5 -26t121.5 -69.5t86 -99.5t53.5 -117t17.5 -121zM286 215q13 -7 7 -20l-13 -27q-6 -14 -19 -7l-102 47
q31 -122 131.5 -201.5t229.5 -79.5q99 0 183.5 48t134.5 130l59 -18q-57 -100 -157.5 -160t-219.5 -60q-97 0 -180 37.5t-137.5 98.5t-84.5 138.5t-30 158.5zM286 215zM484 153h-133q-3 9 -3 25q0 6 1 12.5t2 12.5h133v64h-133q-3 8 -3 24q0 7 1 13.5t2 12.5h104l-133 234
q10 2 21 2.5t21 0.5t21 -0.5t20 -2.5l118 -219l117 219q9 2 19 2.5t20 0.5t20 -0.5t19 -2.5l-131 -234h110q2 -11 2 -24q0 -15 -2 -26h-139v-64h139q2 -10 2 -23q0 -16 -2 -27h-139v-114l-18 -2q-9 -1 -18.5 -1t-19 1t-18.5 2v114zM484 153z" />
    <glyph glyph-name="uniE62B" unicode="&#xe62b;" horiz-adv-x="1026" 
d="M410 -212h44v237q0 19 13 45q3 2 128 164t248 322l123 160q-134 -774 -134 -781q0 -5 -4 -7.5t-9 1.5q-3 0 -75 25.5t-142 51.5l-71 25l-19 -51q269 -96 294 -102q24 -10 41.5 5.5t22.5 45.5q3 10 40 216t74 408t40 208q0 2 0.5 10t0.5 12.5t-3.5 11t-10.5 11.5
q-8 2 -18 -1t-15 -8l-5 -4l-7 19q-908 -538 -940 -557q-24 -14 -25.5 -37.5t18.5 -32.5q26 -13 301 -115l13 44l-269 103l851 505q-454 -588 -473 -614q-32 -43 -32 -83v-237zM410 -212z" />
    <glyph glyph-name="uniE62C" unicode="&#xe62c;" 
d="M844 -57h-307v357h311v-373l-4 16v0zM177 300h307v-357h-307v357v0zM120 464h364v-110h-364v110v0zM901 354h-364v110h364v-110v0zM281 657q47 0 96.5 -42t85.5 -95h-95q-54 0 -95.5 25.5t-41.5 70.5q0 22 11.5 31.5t38.5 9.5v0zM740 657q50 0 50 -44q0 -43 -40.5 -69.5
t-93.5 -26.5h-95q36 55 84 97.5t95 42.5v0zM957 464q0 22 -16 37.5t-40 15.5h-96q42 42 42 96q0 40 -26 69t-81 29q-113 0 -229 -167q-117 167 -233 167q-54 0 -80.5 -29t-26.5 -69q0 -59 42 -96h-93q-22 0 -39 -15.5t-17 -37.5v-164h56v-357q0 -23 16.5 -38.5t40.5 -15.5
h670q23 0 40 16t17 38v357h56l-3 164v0zM957 464z" />
    <glyph glyph-name="uniE62D" unicode="&#xe62d;" 
d="M363 556l-64 256h426l-64 -256h-298zM357 769l48 -170h214l48 170h-310zM450 29l-30 30l149 107l30 -30zM420 315l149 107l30 -30l-149 -107zM450 157l-30 30l149 107l30 -30zM405 513l-98 -475l205 -186l205 187l-98 474h42l107 -490l-256 -235l-256 235l107 490h42z
" />
    <glyph glyph-name="uniE62E" unicode="&#xe62e;" 
d="M925 666h-93v126q0 15 -10 25t-25 10h-571q-14 0 -24 -10t-10 -25v-126h-93q-15 0 -25 -10t-10 -24v-191q0 -82 58 -140q51 -51 121 -59q39 -60 101 -99t134 -46v-87h-150q-14 0 -24.5 -10t-10.5 -24t10.5 -24.5t24.5 -10.5h368q14 0 24.5 10.5t10.5 24.5t-10.5 24
t-24.5 10h-149v87q71 7 133 46t101 99q69 8 119 57l2 2q58 58 58 140v191q0 14 -10 24t-25 10zM172 349q-39 39 -39 92v156h59v-187q1 -44 13 -86q-19 9 -33 25zM763 412v-3q-1 -58 -28 -110l-1 -1q-32 -61 -92.5 -97.5t-130 -36.5t-129.5 36.5t-92 97.5l-1 1
q-27 53 -28 113v3v343h502v-346zM891 441q0 -52 -38 -92l-2 -2q-16 -15 -32 -23q12 41 13 86v1v186h59v-156zM553 520l-29 89q-2 6 -8 8q-12 4 -16 -8l-29 -89h-93q-7 0 -11 -5q-7 -10 3 -18l76 -55l-29 -89q-2 -5 2 -11q7 -11 18 -3l75 55l75 -55q5 -4 12 -2q12 4 8 16
l-29 89l75 54q6 4 6 11q0 6 -3.5 9.5t-9.5 3.5h-93zM555 457q-7 -5 -4 -14l19 -60l-50 37q-8 6 -16 0l-50 -37l19 60q3 9 -5 15l-51 36h63q11 0 13 10l19 59l19 -60q3 -9 13 -9h63z" />
    <glyph glyph-name="uniE62F" unicode="&#xe62f;" 
d="M586 654q50 0 85.5 35.5t35.5 85.5t-35.5 85.5t-85.5 35.5t-85.5 -35.5t-35.5 -85.5t35.5 -85.5t85.5 -35.5zM586.5 853q32.5 0 55.5 -23t23 -55.5t-23 -55.5t-55.5 -23t-55.5 23t-23 55.5t23 55.5t55.5 23zM886 -36l-204 293v142l39 -39q2 -2 5 -4l60 -29q13 -7 27 -7
q12 0 23 5q26 10 34 36q7 22 -1.5 43t-28.5 31l-64 32l-97 145h-1l-1 2l-3 2q-1 2 -3 3t-4 1.5t-4 0.5l-1 1h-1h-150q-7 0 -13 -5l-150 -125q-4 -3 -6 -7l-63 -78q-5 2 -9 2q-18 -1 -30 -15l-25 19q-11 8 -24.5 6t-22.5 -13l-76 -101q-8 -11 -6 -24.5t13 -21.5l164 -124
q9 -7 20 -7h4q14 2 23 13l76 102q8 11 6 24.5t-13 21.5l-25 19q9 14 6 30q0 3 -2 6l69 65l63 32v-187l-44 -132h-122q-24 0 -41.5 -17t-17.5 -41.5t17.5 -41.5t41.5 -17h212q11 0 17 8l63 84l178 -205q17 -20 44 -20q24 0 41 17q15 15 17 36t-10 39zM682 529l61 -91
q3 -4 8 -7l70 -35q14 -7 9 -21q-3 -8 -10 -11t-15 1l-56 28l-67 66v70zM281 175l-149 112l65 86l51 -38l8 10q7 -21 26 -30q9 -5 21 -5l-8 -10l51 -39zM526 47h-202q-7 0 -11.5 5t-4.5 11.5t4.5 11t11.5 4.5h137q16 0 21 15l38 114l68 -78zM849 -81q-5 -4 -11 -4q-7 0 -12 5
l-293 339v216q0 12 -10.5 18.5t-20.5 0.5l-100 -50q-6 -2 -9 -8l-82 -80q-4 -6 -10 -3q-7 3 -4 10l82 99l140 117h121v-328q0 -7 3 -13l208 -299q7 -11 -2 -20z" />
    <glyph glyph-name="uniE630" unicode="&#xe630;" 
d="M511 -61q-91 0 -173.5 35.5t-142.5 95.5t-95.5 142.5t-35.5 173.5q0 89 34 170.5t97 145t145 97t171 33.5q137 0 251 -77q92 -62 143.5 -160t51.5 -209q0 -17 -1 -31q-7 -115 -68.5 -210.5t-161.5 -150.5t-215 -55zM511 777q-78 0 -149.5 -29.5t-127 -85t-85 -127
t-29.5 -149.5q0 -106 52.5 -196t142.5 -142.5t196 -52.5q101 0 188 48t141 132t61 184q1 13 1 27q0 97 -45.5 183t-126.5 140q-99 68 -219 68zM177 346q-13 0 -14 13t-1 27q0 5 4 9.5t10 4.5t10 -4.5t4 -9.5q0 -13 1 -25q0 -6 -3.5 -10.5t-9.5 -4.5h-1zM301 122q-4 0 -8 3
q-84 62 -116 162q-4 13 9 17.5t18 -9.5q29 -91 106 -148q11 -8 3 -19q-5 -6 -12 -6zM511 372q-6 0 -10 4l-294 294q-10 10 0 19.5t20 -0.5l284 -283l277 294q10 10 20 0t1 -20l-288 -304q-4 -4 -10 -4zM511 372q-6 0 -10 4t-4 9.5t4 9.5t9 5l404 11q5 0 9.5 -4t4.5 -9.5
t-4 -9.5t-9 -5z" />
    <glyph glyph-name="uniE631" unicode="&#xe631;" 
d="M86 -107h775v-106h-775v106zM86 2h223l498 433l-222 216l-444 -432zM640 704l221 -214l123 107l-209 216z" />
    <glyph glyph-name="uniE632" unicode="&#xe632;" 
d="M693 465q15 0 35 -2q-23 109 -127.5 181.5t-238.5 72.5q-98 0 -181 -40.5t-132 -111.5t-49 -156q0 -143 145 -245l-36 -109l127 64q6 -2 25 -5.5t27 -5t22.5 -4t26.5 -3t25 -0.5q16 0 34 1q-11 38 -11 76q0 119 89.5 203t218.5 84zM498 563q21 0 33.5 -12.5t12.5 -33
t-12.5 -33t-33.5 -12.5t-37.5 13t-16.5 32.5t16.5 32.5t37.5 13zM245 472q-22 0 -38.5 13t-16.5 32.5t16.5 32.5t38.5 13q20 0 32.5 -12.5t12.5 -33t-12.5 -33t-32.5 -12.5zM1024 182q0 71 -43 132t-113.5 96t-151.5 35q-129 0 -218.5 -77t-89.5 -186t89.5 -186t218.5 -77
q37 0 109 18l99 -54l-27 90q127 96 127 209zM616 228q-13 0 -24.5 11t-11.5 24.5t11.5 25t24.5 11.5q20 0 33 -11t13 -25.5t-13 -25t-33 -10.5zM815 228q-13 0 -24.5 11t-11.5 24.5t11.5 25t24.5 11.5q20 0 33 -11t13 -25.5t-13 -25t-33 -10.5z" />
    <glyph glyph-name="uniE633" unicode="&#xe633;" 
d="M737 554l-4 93q9 4 9 14q0 7 -5 12t-11 5q-3 0 -6 -1l-50 59q2 2 2 5q0 5 -4 9t-9 4q-4 0 -7 -3l-105 47q0 5 -3.5 9t-9.5 4q-10 0 -12 -10l-97 -17q-6 12 -19 12q-9 0 -16 -6.5t-7 -16.5q0 -3 1 -6l-49 -39q-3 2 -7 2q-7 0 -11.5 -5t-4.5 -12q0 -6 4 -10l-32 -71
q-13 -3 -13 -16q0 -9 8 -14l22 -114q-13 -6 -13 -20q0 -10 6.5 -16.5t15.5 -6.5q2 0 4 1l50 -114q-4 -4 -4 -10q0 -14 13 -16l15 -60q-1 -3 -1 -5q0 -5 3.5 -8.5t7.5 -3.5q6 0 9 4l83 1q6 -13 20 -13t20 13h37q3 -6 10 -6t10 6l30 11q4 -4 9 -4t8 3.5t3 8.5v4l5 74
q14 2 14 16q0 5 -3 9l29 61q11 0 11 12q0 4 -2 7l36 74h3q10 0 16.5 6.5t6.5 15.5q0 17 -16 22zM721 552l-40 53q4 5 4 11q0 2 -1 3l1 1l36 26l4 -92zM625 340l-35 -27l-1 1v56q1 1 2 1l32 -24q0 -4 2 -7zM324 486l27 60q3 0 5 1l45 -27v-1v-2l-74 -35q-2 2 -3 4zM556 695
q-6 -3 -7 -10l-55 -5q-1 3 -4 5l43 92zM711 655v-1l-34 -24q-4 2 -8 2q-6 0 -10 -3l-66 41zM650 621l-52 -11l-22 57zM617 489l-40 -11l-1 1l33 72l15 -53q-5 -3 -7 -9zM455 329l-8 30l41 29zM475 314q-2 7 -9 11l35 60v-73zM361 568l9 12l19 -7zM565 381q1 -10 12 -13v-52
h-2l-49 77zM408 612l77 -24v-1l-64 -6q-4 5 -10 5l-6 23q2 1 3 3zM527 577l47 -10l-46 -12l-8 14q4 3 7 8zM428 531q-4 3 -9 4v29q2 2 3 5l67 6v-1zM513 557l3 -5l-3 -1v6zM521 541l34 -63q-2 -3 -2 -7h-31q-3 5 -9 6v62zM501 424l-15 17l15 10v-27zM517 419l-4 2v31
q6 1 9 7h30zM565 485l-31 59l64 17l2 -2zM599 574l-60 12l52 11l8 -22v-1zM528 596q-2 4 -4 6l40 62l22 -56zM551 673q1 -2 3 -3l-40 -61q-3 1 -7 1l-16 55q1 1 2 3zM475 665l4 -2l16 -57q-4 -2 -6 -6l-78 23v2zM390 607q2 -1 4 -1l5 -23l-21 7zM403 564q1 -2 4 -3v-30
l-43 25zM499 567q1 0 1 -1h1v-18l-42 -11zM435 519l66 17v-58l-66 37v4zM498 466v-1v-1l-19 -13l-38 47zM492 415l-42 2l26 18zM513 391l53 -83l-1 -1l-52 4v80zM567 393l-44 14v1l41 47l10 -56q-4 -2 -7 -6zM612 579h-2l-7 20l44 9zM471 677l-66 -42q-1 1 -3 2l4 114
q3 0 6 1l60 -72q-1 -1 -1 -3zM380 613l-14 -19l-49 17zM358 584l-10 -14q-2 0 -4 -1l-35 32zM468 444l-26 -18q-5 4 -10 4l-7 68zM445 405l44 -2l-46 -32l-8 27q7 2 10 7zM446 319l-53 4l43 29zM473 302l28 -2l1 -36h-2l-28 36q0 1 1 2zM522 262q-4 3 -8 4l-1 33l47 -4z
M586 402l-11 61q1 1 2 3l41 10zM619 559q3 4 3 8q0 2 -1 4l38 31l-25 -93zM710 667l-129 17l70 48q3 -3 8 -3h2l50 -60v-1q0 -1 -1 -1zM574 694q-2 2 -6 3l-25 90l100 -46zM526 789l-47 -99l-57 68q6 6 6 14l97 18zM394 754l-4 -116l-48 67q2 4 2 8q0 3 -1 6l48 38zM328 697
q3 0 5 1l48 -68q-1 -2 -2 -5l-77 -2q-1 4 -6 7l31 67h1zM292 600l46 -42q0 -4 2 -8l-28 -60l-21 110h1zM332 471l75 35q2 -1 5 -3l8 -77q-1 -2 -2 -3l-86 43q1 0 1 2q0 1 -1 3zM424 394l9 -30l-45 -31v1h-1zM388 311l55 -4q1 -3 2 -5l-45 -49h-1l-14 55q2 1 3 3zM454 294h5
h2l30 -39q-3 -4 -4 -9l-78 -1zM530 253l40 35q1 -1 2 -1v-37q-3 -1 -5 -4h-35q-1 4 -2 7zM584 249v36h1l26 -29l-25 -9zM625 265q-2 0 -4 -1l-26 29q1 4 1 8v2l34 26zM639 363q-6 0 -11 -5l-30 23l68 32l-23 -50h-4zM668 429q0 -1 1 -2l-74 -35l33 76q2 -1 4 -1h1l36 -35
q-1 -2 -1 -3zM643 497l28 102l41 -55q-4 -5 -4 -12q0 -3 1 -7zM328 454l87 -43q1 -3 2 -5l-42 -68l-50 113zM680 442q-2 0 -4 -1l-32 32q4 5 4 10v3l68 29zM627 199h-230q-3 -1 -2.5 -5t5.5 -4h1v-22q0 -5 7 -7l207 8q6 1 6 7v14q7 1 9 4q1 4 -3 5zM411 125l204 9
q10 1 9.5 11t-10.5 9l-204 -10q-9 0 -9 -10q1 -9 10 -9zM615 124l-204 -10q-10 0 -10 -10q1 -9 10 -9l205 10q9 0 9 10q-1 9 -10 9zM615 93l-205 -10q-9 0 -9 -10q1 -9 10 -9l205 10q9 0 8.5 10t-9.5 9zM614 63l-204 -10q-9 0 -9 -10q1 -9 9 -9q14 -22 38 -36l127 -1v0
q28 19 38 38l-191 -1l193 10q10 0 9.5 10t-10.5 9zM457 -14h1q29 -13 39 -29h31q12 17 38 29h1h-109h-1z" />
    <glyph glyph-name="uniE634" unicode="&#xe634;" 
d="M539 -212zM715 580v146h-217v-214h146q73 -3 71 68zM632 541h-88v153h124v-112q3 -44 -36 -41zM189 500v-30q109 32 146 88q36 -56 136 -85v27q-80 31 -112 92h112v29h-117q5 20 5 44v29h95v30h-168q7 17 15 41h-47q-7 -61 -73 -83v-24q59 12 83 36h49v-73h-127v-29h117
q-22 -58 -114 -92zM310 246v76h159q3 15 8 29h-167v78h217q22 20 49 32h-314v-249h224q-8 17 -13 34h-163zM709 231q1 3 2.5 11.5t2.5 15.5l1 7q27 19 40.5 49.5t12.5 51.5l-1 20q-4 1 -10 1t-21.5 -2t-29.5 -6.5t-31 -16t-29 -28.5q-27 -2 -35 -6q-6 -3 -17 -14.5
t-19 -20.5l-8 -10q-6 -10 11 -12h32q0 -20 13 -31q5 -5 12 -7.5t12 -2.5h5v-33q1 -7 4 -10t6 -2l2 1q37 31 45 45zM710.5 298q-12.5 0 -22 9.5t-9.5 22.5t9.5 22t22 9t22 -9t9.5 -22t-9.5 -22.5t-22 -9.5zM611.5 231q-10.5 11 -11.5 30l-29 -30q0 -2 6.5 -2t7.5 -1
q2 -3 -2.5 -14.5t-2.5 -13.5v0q3 -3 14 1.5t14 2.5q2 -1 2 -7.5t2 -6.5l30 29q-20 1 -30.5 12zM667 469q-76 0 -129.5 -53.5t-53.5 -129.5t53.5 -129.5t129.5 -53.5t129.5 53.5t53.5 129.5t-53.5 129.5t-129.5 53.5zM667 134q-63 0 -107.5 44.5t-44.5 107.5t44.5 107.5
t107.5 44.5t107.5 -44.5t44.5 -107.5t-44.5 -107.5t-107.5 -44.5z" />
    <glyph glyph-name="uniE635" unicode="&#xe635;" horiz-adv-x="1041" 
d="M578 818q-25 3 -51 3q-120 0 -223 -60.5t-165 -165.5t-67 -230l20 30q-41 -17 -66.5 -56t-25.5 -86q0 -63 43 -107.5t103 -44.5h12l-2 33l-28 -16q60 -113 167 -179.5t232 -66.5q124 0 230 65t167 176l-28 -17q60 1 102.5 45.5t42.5 107.5q0 41 -20 76.5t-55 55.5l16 -28
q-1 151 -86 272q-8 12 -21 14t-24 -6t-13 -22t6 -25q73 -104 75 -234v-19l16 -10q19 -11 30.5 -31t11.5 -43q0 -36 -24 -61t-58 -25l-18 -1l-9 -16q-52 -96 -143 -152t-198 -56q-108 0 -200 57.5t-143 154.5l-10 19l-21 -1q-3 -1 -7 -1q-34 0 -58 25.5t-24 60.5
q0 27 14 48.5t38 31.5l19 8l1 22q4 107 57 197.5t141.5 142.5t192.5 52q22 0 44 -3q13 -1 23 7.5t11.5 22t-6.5 24.5t-21 12zM738 219l-6 -12q-32 -60 -89 -94t-123 -34q-69 0 -128 38t-90 102q-6 12 -18.5 16.5t-24 -1.5t-16 -19t1.5 -26q39 -81 113.5 -129t161.5 -48
q84 0 155 43.5t112 118.5q5 8 8 15q6 13 2 26t-16 19t-24.5 1.5t-18.5 -16.5zM672 830q35 -1 59 -27q26 -26 26 -63.5t-25 -64t-61 -27t-62 26.5q-9 9 -22.5 9t-22.5 -9.5t-9 -23.5t9 -24q45 -45 107.5 -45t106 46.5t43.5 111.5t-45 111q-43 44 -103 45q-13 0 -22.5 -9.5
t-10 -23t9 -23.5t22.5 -10zM758 412q19 -20 19 -47q0 -28 -19 -47.5t-45 -19.5t-45 19.5t-19 47t19 47t45 19.5t45 -19zM378 412q19 -20 19 -47q0 -28 -18.5 -47.5t-45 -19.5t-45.5 19.5t-19 47t19 47t45 19.5t45 -19z" />
    <glyph glyph-name="uniE636" unicode="&#xe636;" 
d="M336 -80q-5 0 -10 3q-144 81 -195 169q-50 86 -26 200q10 49 53 135q17 34 25 52t17 46t10 52q1 15 16 18.5t22 -9.5q28 -50 35 -106q156 207 134 354q-2 11 7 18.5t19 4.5q49 -16 106 -67q49 -44 86 -105q36 -58 59 -129q8 27 5.5 55t-13.5 50q-6 15 6 25t25 0
q21 -15 55 -54t65 -89q86 -141 78 -273q-5 -97 -63 -180q-65 -94 -194 -167q-13 -7 -24 3.5t-4 23.5q31 62 37 134q6 70 -13 140q-18 69 -57 128q-26 39 -60 70q-1 -35 -9 -73q-21 -88 -72 -145q-10 -11 -24 -4t-11 22q7 35 0 67q-19 -52 -50 -97q-18 -27 -28 -47.5
t-16.5 -50.5t0.5 -66t28 -78q4 -9 0 -18q-4 -8 -13 -11q-3 -1 -6 -1zM237 505q-11 -33 -42 -96q-41 -82 -50 -125q-21 -99 21 -171q37 -63 129 -123q-17 56 -10 107q9 54 52 118q21 31 36.5 67t19 50t4.5 21q3 14 16 17t21 -8q22 -28 29 -74q16 32 25 70q15 65 6 105
q-3 13 8.5 21t22.5 0q62 -43 106 -109q43 -65 63 -141q20 -77 14 -153q-4 -47 -17 -90q174 119 183 281q7 119 -72 250q-28 45 -61 84v-21q-4 -60 -40 -92q-8 -8 -19 -4.5t-14 14.5q-18 67 -46 122.5t-59 90.5t-55 55t-47 33q1 -88 -47 -190q-45 -94 -131 -200
q-9 -11 -22.5 -6.5t-14.5 18.5q-3 53 -9 79z" />
    <glyph glyph-name="uniE637" unicode="&#xe637;" 
d="M1001 -212h-140q-10 0 -16.5 7t-6.5 16.5t6.5 16.5t16.5 7h116v116q0 10 7 16.5t16.5 6.5t16.5 -6.5t7 -16.5v-140q0 -9 -7 -16t-16 -7zM1000.5 67q-9.5 0 -16.5 7t-7 17v139q0 10 7 16.5t16.5 6.5t16.5 -6.5t7 -16.5v-139q0 -10 -7 -17t-16.5 -7zM1000.5 347
q-9.5 0 -16.5 6.5t-7 16.5v139q0 10 7 17t16.5 7t16.5 -7t7 -17v-139q0 -10 -7 -16.5t-16.5 -6.5zM1000.5 626q-9.5 0 -16.5 6.5t-7 16.5v116h-116q-10 0 -16.5 7t-6.5 16.5t6.5 16.5t16.5 7h140q9 0 16 -7t7 -16v-140q0 -10 -7 -16.5t-16.5 -6.5zM721 -212h-139
q-10 0 -16.5 7t-6.5 16.5t6.5 16.5t16.5 7h139q10 0 17 -7t7 -16.5t-7 -16.5t-17 -7zM721 765h-139q-10 0 -16.5 7t-6.5 16.5t6.5 16.5t16.5 7h139q10 0 17 -7t7 -16.5t-7 -16.5t-17 -7zM695 347q20 0 33.5 -14t13.5 -33t-13.5 -33t-33.5 -14h-139v-139q0 -19 -14 -33
t-33 -14t-32.5 14t-13.5 33v139h-140q-19 0 -33 14t-14 33t14 33t33 14h140v139q0 19 13.5 33t32.5 14t33 -14t14 -33v-139h139zM442 765h-139q-10 0 -17 7t-7 16.5t7 16.5t17 7h139q10 0 16.5 -7t6.5 -16.5t-6.5 -16.5t-16.5 -7zM163 -212h-140q-9 0 -16 7t-7 16v140
q0 10 7 16.5t16.5 6.5t16.5 -6.5t7 -16.5v-116h116q10 0 16.5 -7t6.5 -16.5t-6.5 -16.5t-16.5 -7zM163 765h-116v-116q0 -10 -7 -16.5t-16.5 -6.5t-16.5 6.5t-7 16.5v140q0 9 7 16t16 7h140q10 0 16.5 -7t6.5 -16.5t-6.5 -16.5t-16.5 -7zM23.5 533q9.5 0 16.5 -7t7 -17v-139
q0 -10 -7 -16.5t-16.5 -6.5t-16.5 6.5t-7 16.5v139q0 10 7 17t16.5 7zM23.5 253q9.5 0 16.5 -6.5t7 -16.5v-139q0 -10 -7 -17t-16.5 -7t-16.5 7t-7 17v139q0 10 7 16.5t16.5 6.5zM303 -165h139q10 0 16.5 -7t6.5 -16.5t-6.5 -16.5t-16.5 -7h-139q-10 0 -17 7t-7 16.5t7 16.5
t17 7z" />
    <glyph glyph-name="uniE638" unicode="&#xe638;" horiz-adv-x="1236" 
d="M880 -128h-174q-9 0 -15 6t-6 15v89q-42 1 -67 0h-89v-89q0 -9 -6.5 -15t-15.5 -6h-176q-22 0 -35 14q-12 11 -12 28v136q-138 87 -191 223l-81 37q-12 6 -12 19v182q0 9 6 15t15 6h71q40 102 114 174l-4 6q-48 73 -61 99.5t-6 40.5q8 18 44 24q16 5 47.5 2t64 -10
t71.5 -27.5t71 -50.5q89 19 185 19q53 0 102 -8q9 -1 14 -8.5t3.5 -16t-8.5 -13.5t-16 -4q-46 7 -95 7q-38 0 -95.5 -6t-91.5 -14q-12 -3 -20 6q-24 24 -53.5 42t-55.5 26.5t-52 12.5t-43.5 3.5t-28.5 -3.5q10 -22 60 -97l14 -22q10 -15 -4 -28q-37 -32 -70 -82t-51 -100
q-5 -15 -20 -15h-64v-146l76 -35q8 -4 11 -12q23 -65 71 -120.5t115 -95.5q11 -6 11 -18v-146l4 -1h155v89q0 9 6 15t15 6h111h33h39h16q9 0 15 -6t6 -15v-89h153q1 0 3 1q0 1 1 3v85q0 10 7 16t19 16.5t40 43t50 67.5t40.5 86.5t19.5 102.5v32v33q-10 123 -81 213
q-5 7 -4 15.5t8 14t15.5 4.5t13.5 -8q73 -91 88 -214q40 8 66 28t27 37q1 15 -28 22q-9 2 -13.5 9.5t-2.5 16.5t10 13.5t16 2.5q21 -6 34.5 -15t18.5 -20t6.5 -18.5t0.5 -13.5q-2 -36 -40 -65.5t-92 -39.5v-15v-34q-2 -50 -18 -100.5t-36 -87t-47 -71t-44 -51.5t-32 -30v-79
q0 -4 -1 -7q-1 -17 -14 -25q-18 -11 -31 -11zM363 569.5q0 -18.5 -13 -31.5t-31.5 -13t-31.5 13t-13 31.5t13 31.5t31.5 13t31.5 -13t13 -31.5zM863 534q-75 0 -128 53t-53 128t53 128t127.5 53t128 -53t53.5 -128t-53.5 -128t-127.5 -53zM863 853q-58 0 -98.5 -40.5
t-40.5 -97.5t40.5 -98t98 -41t98 41t40.5 98t-40.5 97.5t-97.5 40.5zM863 613q-29 0 -47 16t-18 41q0 8 5.5 13.5t13.5 5.5t14 -5.5t6 -13.5q0 -19 26 -19q10 0 18 4t8 15q0 7 -4 11t-24 13l-14 7q-17 9 -25 14t-16 17t-8 28q0 25 18 41t47 16q28 0 45.5 -16t17.5 -41
q0 -8 -5.5 -13.5t-13.5 -5.5t-13.5 5.5t-5.5 13.5q0 19 -25 19q-26 0 -26 -19q0 -7 3.5 -11t23.5 -13l14 -8q17 -8 25 -13t16 -17t8 -28q0 -25 -18 -41t-46 -16zM862 780q-8 0 -13.5 5.5t-5.5 13.5v21q0 8 5.5 13.5t13.5 5.5t13.5 -5.5t5.5 -13.5v-21q0 -8 -5.5 -13.5
t-13.5 -5.5zM862 590q-8 0 -13.5 6t-5.5 14v21q0 8 5.5 13.5t13.5 5.5t13.5 -5.5t5.5 -13.5v-21q0 -8 -5.5 -14t-13.5 -6z" />
    <glyph glyph-name="uniE639" unicode="&#xe639;" 
d="M648 595v114h-272v-114h-182v-68h45v-636h546v636h45v68h-182zM421 663h182v-68h-182v68zM739 -63h-454v590h454v-590zM376 436h45v-409h-45v409zM489 436h46v-409h-46v409zM603 436h45v-409h-45v409z" />
    <glyph glyph-name="uniE63A" unicode="&#xe63a;" horiz-adv-x="2790" 
d="M1080 1.5q-101 -92.5 -301 -92.5h-89v746h89q200 0 301 -92t101 -281q0 -188 -101 -280.5zM1173 652.5q-142 124.5 -413 124.5h-203v-988h203q271 0 413 124t142 369q0 246 -142 370.5zM282 180q0 -105 -14 -146q-14 -44 -45 -68q-42 -32 -93 -45t-126 -13h-4v-120h4h7
q208 0 309 86t101 260v645h-139v-599zM1392.5 -41q-22.5 0 -38 -16t-15.5 -38t15.5 -37.5t38 -15.5t38 15.5t15.5 37.5t-15.5 38t-38 16zM2017 600h-390v55h390v-55zM2096 555v146h-548v-146h233v-140q0 -34 -13.5 -46t-40.5 -12v-44q70 2 103 30.5t33 87.5v124h233z
M1863 812h-82v-35h-253v-45h588v45h-253v35zM1528 314h47q28 25 51 55.5t36.5 56.5t22.5 49t12 36l3 13h-89q-15 -113 -83 -210zM1944 524q1 -5 3 -13.5t12 -34.5t23 -50.5t36 -55.5t51 -56h47q-68 97 -82 210h-90zM2202 314h47q28 25 51 55.5t36 56.5t22.5 49t12.5 36l3 13
h-90q-14 -113 -82 -210zM2617 524q2 -5 4 -13.5t12 -34.5t22.5 -50.5t36 -55.5t51.5 -56h47q-69 98 -83 210h-90zM2409 777l16 35h-83l-16 -35h-124v-45h103l-83 -177h238v-140q0 -35 -13 -46.5t-41 -11.5v-44q71 2 103.5 30.5t32.5 87.5v124h227v2v43h-227v98h-82v-98h-133
l61 132h402v45h-381zM2112.5 -141q-59.5 0 -102 42t-42.5 101.5t42.5 102t102 42.5t101.5 -42.5t42 -102t-42 -101.5t-101.5 -42zM2112 218q-89 0 -152 -63t-63 -152t63 -152t152 -63t152 63t63 152t-63 152t-152 63zM2719 200l-136 -255l-137 255h-70v-394h69v250l138 -249
l138 249v-250h68v394h-70zM1839 -105q-41 -36 -96 -36q-59 0 -101.5 42t-42.5 101.5t42.5 102t101.5 42.5q55 0 96 -37l7 -6l51 50l-9 8q-61 56 -145 56q-89 0 -152 -63t-63 -152t63 -152t152 -63q84 0 145 56l9 8l-51 50z" />
    <glyph glyph-name="uniE63B" unicode="&#xe63b;" 
d="M706 265h-105q-8 0 -13 -5t-5 -12.5t5 -12.5t13 -5h105q7 0 12 5t5 12.5t-5 12.5t-12 5zM880 370q8 0 13 5t5 12v158q0 14 -10.5 24.5t-24.5 10.5h-700q-14 0 -24.5 -10.5t-10.5 -24.5v-158q0 -7 5.5 -12t12.5 -5q22 0 37 -20.5t15 -49.5t-15 -49.5t-37 -20.5
q-7 0 -12.5 -5t-5.5 -12v-158q0 -14 10.5 -24.5t24.5 -10.5h700q14 0 24.5 10.5t10.5 24.5v158q0 7 -5 12t-13 5q-21 0 -36.5 20.5t-15.5 49.5t15.5 49.5t36.5 20.5zM793 545h70v-35h-70v35zM163 545h595v-35h-595v35zM758 55h-595v35h595v-35zM863 55h-70v35h70v-35z
M863 197v-72h-700v72q31 8 50.5 36.5t19.5 66.5t-19.5 66.5t-50.5 36.5v72h700v-72q-30 -8 -50 -36.5t-20 -66.5t20 -66.5t50 -36.5zM706 370h-105q-8 0 -13 -5t-5 -12.5t5 -12.5t13 -5h105q7 0 12 5t5 12.5t-5 12.5t-12 5zM601 283h70q7 0 12 5t5 12t-5 12t-12 5h-70
q-8 0 -13 -5t-5 -12t5 -12t13 -5zM496 335h-42l-30 60q-5 10 -15.5 10t-15.5 -10l-31 -60h-41q-7 0 -12.5 -5t-5.5 -13q0 -5 2 -8.5t4 -4.5l2 -1l46 -30l-18 -56l-1 -4q0 -8 5.5 -13t12.5 -5q5 0 9 3l43 29l43 -29q3 -3 10 -3t12 5t5 13l-1 4l-17 56l45 30q8 3 8 14
q0 8 -5 13t-12 5z" />
    <glyph glyph-name="uniE63C" unicode="&#xe63c;" 
d="M982 618q-51 6 -67 6q-101 0 -195 -42q-31 65 -82 120.5t-113 91.5l-13 6l-13 -6q-62 -36 -113 -91.5t-82 -120.5q-99 42 -195 42q-42 0 -67 -6l-23 -4v-22q3 -179 117.5 -315.5t285.5 -167.5v-240q0 -37 25.5 -63.5t61.5 -26.5t61 26t25 64v240q172 31 286.5 167.5
t116.5 315.5v22zM512 739q109 -69 163 -182q-102 -62 -163 -151q-67 98 -163 151q65 124 163 182zM74 570q6 0 19 1.5t19 1.5q116 0 216 -58.5t158 -156.5q-48 -91 -57 -201q-148 29 -248 144.5t-107 268.5zM515 147q-5 0 0 0q-25 0 -38 3q5 82 38 154q34 -72 39 -154
q-9 0 -22 -1.5t-17 -1.5zM512 -173q-17 0 -27.5 11t-10.5 28v233q6 0 19 -1.5t19 -1.5q26 0 38 3v-233q0 -17 -10.5 -28t-27.5 -11zM598 157q-4 100 -57 201q58 98 158 156.5t216 58.5q23 0 39 -3q-10 -153 -110.5 -268.5t-245.5 -144.5z" />
    <glyph glyph-name="uniE63D" unicode="&#xe63d;" 
d="M936 475l-423 212l-424 -212l424 -211zM513 631l310 -156l-310 -155l-311 155zM879 347l-368 -183l-367 184l-2 -1l-54 -27l423 -212l424 212zM879 189l-368 -183l-367 183l-2 -1l-54 -27l423 -212l424 212z" />
    <glyph glyph-name="uniE63E" unicode="&#xe63e;" 
d="M512 300zM320 300q0 79 56.5 135.5t135.5 56.5t135.5 -56.5t56.5 -135.5t-56.5 -135.5t-135.5 -56.5t-135.5 56.5t-56.5 135.5zM890 364q-20 120 -107 207t-207 107v70h-128v-70q-120 -20 -207 -107t-107 -207h-70v-128h70q20 -120 107 -207t207 -107v-70h128v70
q120 20 207 107t107 207h70v128h-70zM512 -20q-132 0 -226 94t-94 226t94 226t226 94t226 -94t94 -226t-94 -226t-226 -94z" />
    <glyph glyph-name="uniE63F" unicode="&#xe63f;" 
d="M596 698v-158h-484v158h484zM642 744h-576v-250h576v250zM914 494v-158h-484v158h484zM960 540h-576v-250h576v250zM596 288v-158h-484v158h484zM642 334h-576v-250h576v250zM914 80v-159h-484v159h484zM960 126h-576v-251h576v251z" />
    <glyph glyph-name="uniE640" unicode="&#xe640;" 
d="M998 808q-110 -78 -214.5 -170.5t-185.5 -181.5t-136.5 -156t-101.5 -130l-248 225l-109 -102l428 -504q39 115 121 273t209.5 345t262.5 331z" />
    <glyph glyph-name="uniE641" unicode="&#xe641;" 
d="M541 64q-18 -3 -31 -3q-102 -6 -178.5 64t-82.5 174q-5 104 64 182q68 77 171 82q6 1 13 1q99 0 170.5 -69.5t77.5 -169.5q1 -26 -3 -51l88 -86q11 31 16 59l84 18l-2 23l-3 59l-1 24l-78 7q-5 28 -14 53l63 57l-12 19l-33 50l-13 19l-70 -31q-18 21 -39 39l26 79l-21 11
l-52 27l-21 10l-44 -61q-25 9 -55 15l-17 80l-23 -2l-59 -3l-24 -1l-7 -75q-31 -5 -55 -14l-55 60l-19 -13l-50 -32l-19 -13l31 -69q-18 -16 -32 -31q-1 -2 -3.5 -5t-3.5 -4l-79 26l-11 -21l-27 -52l-10 -21l63 -46q-8 -25 -13 -53l-84 -17l1 -23l4 -59l1 -24l78 -8
q5 -28 14 -52l-63 -57l12 -19l33 -50l12 -19l71 31q17 -20 39 -39l-26 -79l21 -11l52 -27l21 -10l44 61q29 -10 55 -15l17 -80l23 1l59 4l24 1l7 75q31 5 62 17zM957 -32q2 10 -2.5 22t-11.5 18q-53 52 -151.5 147.5t-126.5 123.5q10 42 -2 85.5t-44 75.5q-37 37 -89 47
t-98 -9l96 -95q6 -6 6 -14.5t-6 -14.5l-66 -66q-6 -6 -15 -6t-15 6l-95 95q-19 -46 -9 -97.5t47 -89.5q33 -32 76 -44t86 -1q26 -28 122 -126.5t148 -152.5q6 -7 18 -11t22 -3q41 7 72.5 38t37.5 72z" />
    <glyph glyph-name="uniE642" unicode="&#xe642;" horiz-adv-x="1317" 
d="M413 277l201 -201l-52 -52l109 -108l264 264l-108 108l-58 -57l-1 2l-23 -24l1 -1l-106 -106l-202 202l105 105l169 -168l23 24l-2 2l384 384l-124 124l-352 -351l24 -23l327 327l77 -77l-360 -360l-55 56l-62 61l-24 24l57 57l-109 109l-264 -264l109 -108zM827 241
l61 -62l-217 -216l-61 61zM516 551l61 -62l-216 -215l-61 60zM172 -153h900v36h-900v-36z" />
    <glyph glyph-name="uniE643" unicode="&#xe643;" 
d="M625 311h-207q-32 0 -55.5 23.5t-23.5 56.5v206q0 33 23.5 56t55.5 23h207q32 0 55.5 -23t23.5 -56v-206q0 -33 -23.5 -56.5t-55.5 -23.5zM418 637q-16 0 -27.5 -12t-11.5 -28v-206q0 -17 11.5 -28.5t27.5 -11.5h207q16 0 27.5 11.5t11.5 28.5v206q0 16 -11.5 28
t-27.5 12h-207zM522 -109q-54 0 -92 38t-38 92t38 92.5t92 38.5t92 -38.5t38 -92.5t-38 -92t-92 -38zM522 112q-37 0 -64 -27t-27 -64t27 -63.5t64 -26.5t64 26.5t27 63.5t-27 64t-64 27zM883.5 -109q-53.5 0 -92 38t-38.5 92t38.5 92.5t92 38.5t92 -38.5t38.5 -92.5
t-38.5 -92t-92 -38zM883.5 112q-37.5 0 -64 -27t-26.5 -64t26.5 -63.5t64 -26.5t64 26.5t26.5 63.5t-26.5 64t-64 27zM154.5 -109q-53.5 0 -92 38t-38.5 92t38.5 92.5t92 38.5t92 -38.5t38.5 -92.5t-38.5 -92t-92 -38zM154.5 112q-37.5 0 -64 -27t-26.5 -64t26.5 -63.5
t64 -26.5t64 26.5t26.5 63.5t-26.5 64t-64 27zM502 331h40v-199h-40v199zM903 132h-39v79h-690v-79h-39v119h768v-119z" />
    <glyph glyph-name="uniE644" unicode="&#xe644;" 
d="M924 474q-34 81 -96 142.5t-142 95.5q-84 36 -175 36q-142 0 -258 -82q-55 -39 -96 -92q-41 -54 -65 -118q-28 -75 -28 -156q0 -91 35 -174q34 -80 96 -142t142 -96q83 -35 174 -35t175 35q80 34 142 96t96 142q35 83 35 174t-35 174zM884 487l-207 -194v6v13l1 370
q67 -29 120 -79.5t86 -115.5zM509.5 162q-56.5 0 -96.5 40t-40 96.5t40 97t96.5 40.5t97 -40.5t40.5 -97t-40.5 -96.5t-97 -40zM647 694l-1 -298q-22 30 -55 49l-238 240q76 32 158 32q70 0 136 -23zM323 671l205 -206q-9 1 -18 1h-7h-374q29 67 79.5 120t114.5 85zM95 300
q0 70 22 136h296q-18 -13 -32 -30l-262 -246q-24 68 -24 140zM131 130l214 200q-3 -16 -3 -31q0 -18 4 -36h-1l-1 -344q-70 31 -125.5 85.5t-87.5 125.5zM375 -93l1 290q23 -30 57 -48l235 -235q-75 -30 -157 -30q-70 0 -136 23zM698 -72l-204 204q8 -1 16 -1q36 0 69 15
l319 -1q-29 -71 -80.5 -127t-119.5 -90zM909 175l-285 1q30 28 44 66l229 215q31 -75 31 -157q0 -64 -19 -125z" />
    <glyph glyph-name="uniE648" unicode="&#xe648;" 
d="M925 289q0 -42 -29.5 -71t-71 -29t-70.5 29t-29 70.5t29 71t70.5 29.5t71 -29.5t29.5 -70.5zM584 599q-78 -50 -124.5 -132t-46.5 -178.5t46.5 -178.5t124.5 -131q12 -13 40 -13q24 0 40 16.5t16 39.5q0 40 -39 52q-53 35 -84.5 92t-31.5 123t31 122.5t85 91.5
q14 4 26.5 17.5t12.5 35.5q0 23 -16 39t-40 16q-12 0 -22 -3t-14 -6zM345 805q-113 -90 -178 -222t-65 -283q0 -150 64 -281t176 -222q19 -9 49 -9q27 0 47 19.5t20 47.5q0 21 -12 37.5t-31 24.5q-84 73 -132 175.5t-48 218.5q0 106 40 200.5t112 167.5q13 7 26.5 15.5
t29 23.5t15.5 27q0 28 -20 47.5t-47 19.5q-12 0 -23.5 -2t-16.5 -3zM345 805z" />
    <glyph glyph-name="uniE64B" unicode="&#xe64b;" 
d="M65 747h893v-893h-893v893z" />
    <glyph glyph-name="uniE651" unicode="&#xe651;" 
d="M896 608h-768v-640h768v640zM1024 736v-896h-1024v896h1024zM832 32h-640v128l192 320l263 -320l185 128v-256zM640 448q0 40 28 68t68 28t68 -28t28 -68t-28 -68t-68 -28t-68 28t-28 68z" />
    <glyph glyph-name="uniE653" unicode="&#xe653;" 
d="M585 -61v-75h167q14 0 23.5 -9.5t9.5 -24t-9.5 -24t-23.5 -9.5h-468q-14 0 -23.5 9.5t-9.5 24t9.5 24t23.5 9.5h167v75q-143 24 -238.5 136t-95.5 260v3q0 33 9 50.5t34.5 17.5t34.5 -17.5t9 -50.5v-12q0 -69 47 -141t121 -118.5t146 -46.5t146 46.5t121 118.5t47 141v12
q0 33 9 50.5t34.5 17.5t34.5 -17.5t9 -50.5v-3q0 -148 -95.5 -260t-238.5 -136zM518 135q-83 0 -141.5 59.5t-58.5 143.5v136h400v-136q0 -84 -58.5 -143.5t-141.5 -59.5zM318 609h400v-68h-400v68zM518 812q64 0 115.5 -37.5t72.5 -97.5h-376q21 60 72.5 97.5t115.5 37.5z
" />
    <glyph glyph-name="uniE656" unicode="&#xe656;" horiz-adv-x="1025" 
d="M512 812q-104 0 -199 -35.5t-163.5 -95t-109 -142t-40.5 -173.5q0 -89 38.5 -169.5t107.5 -142.5q24 -21 115.5 -87.5t171.5 -122.5l79 -56v132q104 0 199 35.5t163.5 95t109 142t40.5 173.5t-40.5 173.5t-109 142t-163.5 95t-199 35.5zM259 298q-28 0 -48 19t-20 46.5
t20 47t48 19.5t48 -19.5t20 -47t-20 -46.5t-48 -19zM514 298q-28 0 -48 19t-20 46.5t20 47t48 19.5t48 -19.5t20 -47t-20 -46.5t-48 -19zM771 298q-28 0 -48 19t-20 46.5t20 47t48 19.5t48 -19.5t20 -47t-20 -46.5t-48 -19z" />
    <glyph glyph-name="uniE657" unicode="&#xe657;" horiz-adv-x="1025" 
d="M1024 386h-426v426h-172v-426h-426v-172h426v-426h172v426h426v172z" />
    <glyph glyph-name="uniE65B" unicode="&#xe65b;" 
d="M196 289zM102 289q0 39 27.5 66.5t66.5 27.5t66.5 -27.5t27.5 -66.5t-27.5 -66.5t-66.5 -27.5t-66.5 27.5t-27.5 66.5zM422 581q-11 12 -38 12q-21 0 -36.5 -15.5t-15.5 -37.5q0 -21 12 -33t25 -16q50 -33 79.5 -86t29.5 -115.5t-29.5 -115.5t-80.5 -86q-36 -11 -36 -49
q0 -22 15.5 -37t36.5 -15q12 0 21.5 3t12.5 6l4 2q74 47 117.5 124t43.5 167.5t-43.5 167.5t-117.5 124zM646 774q-17 7 -42 7q-26 0 -44.5 -18.5t-18.5 -44.5q0 -16 22 -33.5t45 -28.5q67 -68 104.5 -157t37.5 -189q0 -108 -45 -204.5t-124 -165.5q-18 -7 -29 -22.5
t-11 -35.5q0 -26 18.5 -44.5t44.5 -18.5q12 0 23.5 2.5t16.5 4.5l5 2q106 85 166 208t60 264q0 142 -61 265.5t-168 208.5z" />
    <glyph glyph-name="uniE65C" unicode="&#xe65c;" 
d="M521 288zM179 288q0 93 46 171.5t124.5 124t171 45.5t171 -45.5t124.5 -124t46 -171.5t-46 -171.5t-124.5 -124t-171 -45.5t-171 45.5t-124.5 124t-46 171.5z" />
    <glyph glyph-name="uniE65E" unicode="&#xe65e;" 
d="M342 274q-1 -2 -10 -12.5t-11 -12.5q-11 -15 -14.5 -36t1.5 -35q4 -13 14.5 -20.5t19 -9.5t22.5 -3q21 -2 44 -2.5t54.5 0t43.5 0.5h140q47 -1 62 33q18 41 -15 76l-23 23q-25 25 -1 53q30 37 41 54q48 77 33.5 166t-85.5 146q-72 57 -163.5 52.5t-155.5 -68.5
q-68 -73 -64 -171t68 -179q9 -11 10.5 -21.5t-1.5 -17t-10 -15.5zM897 27q0 38 -17 56t-53 18q-315 1 -640 0q-36 0 -52.5 -17t-17.5 -53v-70h780v66zM161 -145h691v71h-691v-71zM161 -145z" />
    <glyph glyph-name="uniE65F" unicode="&#xe65f;" 
d="M733 788h-442q-40 0 -67.5 -28t-27.5 -67v-822q0 -39 27.5 -67t67.5 -28h442q40 0 67.5 28t27.5 67v822q0 39 -27.5 67t-67.5 28zM512 -161q-26 0 -44.5 18.5t-18.5 45t18.5 45t44.5 18.5t44.5 -18.5t18.5 -45t-18.5 -45t-44.5 -18.5zM765 29h-506v633h506v-633z" />
    <glyph glyph-name="uniE662" unicode="&#xe662;" 
d="M508 752q93 1 175 -34t144 -95t98 -141.5t37 -174.5q1 -88 -30.5 -166t-87.5 -137.5t-131 -98.5t-162 -48q-23 -3 -48.5 -5.5t-56.5 -3.5t-69.5 0t-86.5 7q-107 10 -158.5 26.5t-41.5 18.5q54 9 93 29q21 12 17.5 33t-20.5 39q-52 57 -84.5 133.5t-34.5 164.5
q-1 93 34 175t95.5 143.5t142.5 97.5t175 37zM708 301q0 -27 18 -45.5t45 -18.5t46 18.5t19 45.5t-19 45.5t-46 18.5t-45 -18.5t-18 -45.5zM451 301q0 -27 19 -46.5t46 -19.5q28 0 47 19.5t19 46.5q0 28 -19 47t-47 19q-27 0 -46 -19t-19 -47zM197 302q0 -27 18.5 -46
t45.5 -19q28 0 47 19t19 46t-19 46t-47 19q-27 0 -45.5 -19t-18.5 -46z" />
    <glyph glyph-name="uniE663" unicode="&#xe663;" 
d="M628 589h-232v34q0 14 10 24t23 10h166q14 0 23.5 -10t9.5 -24v-34zM628 725h-232q-27 0 -46.5 -20t-19.5 -48v-783h365v783q0 28 -19.5 48t-47.5 20zM64 521v-576q0 -28 19.5 -49.5t47.5 -21.5h132v715h-132q-28 0 -47.5 -20t-19.5 -48zM960 521q0 28 -19.5 48t-46.5 20
h-133v-715h133q27 0 46.5 21.5t19.5 49.5v576z" />
    <glyph glyph-name="uniE666" unicode="&#xe666;" 
d="M749 780h-474q-22 0 -36.5 -15t-14.5 -36v-882q0 -21 14.5 -36t36.5 -15h474q22 0 36.5 15t14.5 36v882q0 21 -14.5 36t-36.5 15zM512 -135q-14 0 -24 10t-10 24t10 24t24 10t24 -10t10 -24t-10 -24t-24 -10zM734 -10h-444v664h444v-664z" />
    <glyph glyph-name="uniE667" unicode="&#xe667;" 
d="M840 758h-323l216 -285zM514 -113l209 557h-421zM316 467h393l-197 261zM857 736l-101 -269h264zM747 444l-233 -622l-237 622h-265l502 -624l503 624h-270zM291 472l215 286h-318l-4 -6zM268 467l-99 262l-169 -262h268z" />
    <glyph glyph-name="uniE66A" unicode="&#xe66a;" 
d="M941 497h-858q-13 0 -22.5 9.5t-9.5 22.5t9.5 22.5t22.5 9.5h858q13 0 22.5 -9.5t9.5 -22.5t-9.5 -22.5t-22.5 -9.5zM512.5 -212q-13.5 0 -22.5 9.5t-9 22.5v960q0 13 9 22.5t22.5 9.5t23 -9.5t9.5 -22.5v-960q0 -13 -9.5 -22.5t-23 -9.5zM681 -212h-338q-14 0 -23 9.5
t-9 22.5t9 22.5t23 9.5h338q14 0 23 -9.5t9 -22.5t-9 -22.5t-23 -9.5zM385 232q-19 0 -28 18l-138 262q-6 12 -2.5 24.5t15.5 18.5t24.5 2t18.5 -15l139 -263q6 -11 2 -24t-16 -19q-7 -4 -15 -4zM102 232q-9 0 -16 4q-11 7 -15 19.5t3 24.5l145 262q7 12 19.5 15.5t24 -3
t15.5 -19t-3 -24.5l-145 -262q-9 -17 -28 -17zM382 232h-273q-14 0 -23 9.5t-9 23t9 22.5t23 9h273q13 0 22.5 -9t9.5 -22.5t-9.5 -23t-22.5 -9.5zM634 232q-8 0 -15 4q-11 6 -15 19t2 24l138 263q6 11 19 15t24.5 -2t15.5 -18.5t-2 -24.5l-138 -262q-9 -18 -29 -18z
M918 232q-19 0 -28 17l-145 262q-7 12 -3.5 24.5t15.5 19t24.5 3t18.5 -15.5l146 -262q6 -12 2.5 -24.5t-15.5 -19.5q-7 -4 -15 -4zM911 232h-273q-13 0 -22.5 9.5t-9.5 23t9.5 22.5t22.5 9h273q13 0 22.5 -9t9.5 -22.5t-9.5 -23t-22.5 -9.5zM244 64q-72 0 -123 56.5
t-51 135.5q0 14 9.5 23t22.5 9t22.5 -9t9.5 -23q0 -53 32 -90.5t77.5 -37.5t78 37.5t32.5 90.5q0 14 9 23t22.5 9t23 -9t9.5 -23q0 -79 -51 -135.5t-123 -56.5zM775 65q-72 0 -123 56.5t-51 135.5q0 13 9.5 22.5t23 9.5t22.5 -9.5t9 -22.5q0 -53 32.5 -90.5t78 -37.5
t77.5 37.5t32 90.5q0 13 9.5 22.5t22.5 9.5t22.5 -9.5t9.5 -22.5q0 -79 -51 -135.5t-123 -56.5z" />
    <glyph glyph-name="uniE66C" unicode="&#xe66c;" 
d="M814 662h-605q-15 0 -26 -11t-11 -26t11 -25.5t26 -10.5h605q15 0 25.5 10.5t10.5 25.5t-10.5 26t-25.5 11zM806 276l-269 268q-10 12 -26 12q-15 0 -26 -12l-268 -268q-11 -10 -11 -25t11 -26t26 -11t26 11l205 206v-480q0 -15 11 -25.5t26 -10.5t25.5 10.5t10.5 25.5
v481l207 -207q11 -11 26 -11t25.5 10.5t10.5 26t-10 25.5z" />
    <glyph glyph-name="uniE66D" unicode="&#xe66d;" 
d="M626 -129h-228q-14 0 -23.5 -9t-9.5 -21.5t9.5 -21.5t23.5 -9h228q14 0 23.5 9t9.5 21.5t-9.5 21.5t-23.5 9zM777 689q-110 101 -265 101t-265 -101q-53 -49 -81.5 -112t-28.5 -132q0 -94 52 -174q45 -70 119 -115v-168q0 -33 25 -56t61 -23h235q36 0 61.5 23t25.5 56
v168q74 44 119 114q52 81 52 175q0 69 -28.5 132t-81.5 112zM650 -12q0 -8 -6 -13.5t-15 -5.5h-235q-8 0 -14.5 5.5t-6.5 13.5v71h277v-71zM711 460l-70 -133q-7 -15 -23 -16h-2q-15 0 -23 12l-71 101l-70 -101q-9 -12 -25 -11.5t-24 15.5l-70 133q-5 11 -2 22t13.5 16.5
t22 2t16.5 -13.5l49 -93l67 96q8 11 23.5 11t22.5 -11l67 -96l49 93q5 10 16.5 13.5t22 -2t14 -16.5t-2.5 -22z" />
    <glyph glyph-name="uniE66E" unicode="&#xe66e;" 
d="M896 -20h-166l-173 -173q-19 -19 -45 -19t-45 19l-173 173h-166q-53 0 -90.5 37.5t-37.5 90.5v576q0 53 37.5 90.5t90.5 37.5h768q53 0 90.5 -37.5t37.5 -90.5v-576q0 -53 -37.5 -90.5t-90.5 -37.5zM896 620q0 27 -19 45.5t-45 18.5h-640q-27 0 -45.5 -18.5t-18.5 -45.5
v-448q0 -26 18.5 -45t45.5 -19h64h64q27 0 45 -19l147 -146l147 146q18 19 45 19h64h64q26 0 45 19t19 45v448zM704 236h-384q-27 0 -45.5 18.5t-18.5 45.5t18.5 45.5t45.5 18.5h384q26 0 45 -18.5t19 -45t-19 -45.5t-45 -19zM704 428h-384q-27 0 -45.5 18.5t-18.5 45.5
t18.5 45.5t45.5 18.5h384q26 0 45 -18.5t19 -45t-19 -45.5t-45 -19z" />
    <glyph glyph-name="uniE672" unicode="&#xe672;" 
d="M57 -212v1024h910v-1024h-910zM512 698h-341v-341h341v341zM853 698h-284v-114h284v114zM853 471h-284v-114h284v114zM853 243h-682v-114h682v114zM853 72h-682v-113h682v113z" />
    <glyph glyph-name="uniE673" unicode="&#xe673;" 
d="M767 301q0 24 -17 41l-388 388q-17 17 -41 17t-40.5 -17t-16.5 -41t17 -40l347 -348l-347 -348q-17 -17 -17 -41t17 -41t40.5 -17t40.5 17l388 389q17 17 17 41z" />
    <glyph glyph-name="uniE676" unicode="&#xe676;" horiz-adv-x="1424" 
d="M486 753l312 -172q6 -4 13.5 -2t10.5 8l9 15q4 6 2 13t-8 11l-312 172q-7 3 -14 1.5t-11 -8.5l-9 -14q-4 -7 -2 -13.5t9 -10.5zM216 306l312 -172q6 -4 13 -2t11 8l9 15q4 6 2 13t-8 11l-312 172q-7 3 -14 1.5t-11 -8.5l-9 -14q-4 -7 -2 -13.5t9 -10.5zM1316 96l-625 309
l84 139q4 6 2 13t-8 10l-281 155q-7 4 -14 2t-11 -8l-198 -328q-3 -6 -1.5 -13t8.5 -11l281 -154q6 -4 13 -2t11 8l84 139l592 -362q7 -4 14 -2.5t11 8.5l45 74q3 6 1 13t-8 10zM1414 52l-31 18q-6 3 -13.5 1t-11.5 -8l-54 -89q-3 -6 -1.5 -13t8.5 -11l31 -17
q6 -3 13.5 -1.5t11.5 7.5l54 90q3 6 1.5 13t-8.5 10zM740 -54h-37q2 2 -2 3q-10 1 -10 5v89h-599v-89q0 -3 -22 -5q-5 -2 -5 -3h-38q-11 0 -19 -12t-8 -25v-89q0 -14 8 -29t19 -15h713q12 0 27.5 16t15.5 28v89q0 12 -15 24.5t-28 12.5zM691 -180h-599q-13 0 -29.5 16
t-16.5 28.5t16.5 28.5t29.5 16h599q13 0 29.5 -16t16.5 -28.5t-16.5 -28.5t-29.5 -16zM691 -180z" />
    <glyph glyph-name="uniE677" unicode="&#xe677;" 
d="M914 -38q0 -31 -22.5 -53.5t-53.5 -22.5h-652q-31 0 -53.5 22.5t-22.5 53.5v313h-78v-313q0 -64 45 -109t109 -45h652q64 0 109 45t45 109v313h-78v-313zM838 768h-652q-64 0 -109 -45t-45 -109v-313h78v313q0 31 22.5 53.5t53.5 22.5h652q31 0 53.5 -22.5t22.5 -53.5
v-313h78v313q0 64 -45 109t-109 45zM640 571q7 -27 6 -52q0 -3 -1.5 -18t-2.5 -30t0 -21q0 -5 8 -21q9 -19 3 -56q-4 -19 -11 -29q-2 -4 -11 -8t-11 -10q-5 -7 -5.5 -24t-2.5 -23t-11 -16.5t-9 -23.5q9 -1 20 -3q20 -43 31 -51q9 -2 31 -8q21 -9 61.5 -26.5t51.5 -21.5
q7 -3 25 -9.5t27 -10.5t19 -13t14 -21q0 -8 1 -50.5t1 -60.5h-724q-1 18 0 60.5t1 50.5q5 12 15 21t19 13t26.5 10.5t24.5 9.5q13 5 53 22t61 26q10 3 31 8q11 8 31 51l15 4q-2 11 -10 19.5t-10 13.5q-3 34 -5 60q0 -1 -3.5 0t-7.5 2t-5 2q-5 3 -9 10t-6 18t-3 18t-2 20.5
t-1 14.5q0 3 5 13.5t3 20.5q-28 135 57 162q18 8 31 12t35.5 8t44.5 0t42 -17l15 -13l23 -4q3 -2 6 -5.5t5.5 -7.5t4 -7.5t2.5 -6.5z" />
    <glyph glyph-name="uniE679" unicode="&#xe679;" 
d="M637 142q2 -1 5 -1h1v0q2 0 4 1h1q3 1 4 3l77 76l76 -76q2 -2 4 -3h1q2 -1 4 -1v0h1q3 0 5 1t4 3q4 4 4 9v391v65v45q0 6 -4 10t-9 4h-172q-1 0 -4 -1h-1h-1q-8 -4 -8 -13v-45v-65v-391q0 -9 8 -12zM176 387q0 -5 4 -9t9 -4h216q5 0 9 4t4 9t-4 9t-9 4h-216q-5 0 -9 -4
t-4 -9zM405 294h-216q-5 0 -9 -3.5t-4 -9t4 -9t9 -3.5h216q5 0 9 3.5t4 9t-4 9t-9 3.5zM405 189h-216q-5 0 -9 -3.5t-4 -9t4 -9.5t9 -4h216q5 0 9 4t4 9.5t-4 9t-9 3.5zM866 603v-66q33 -10 43 -19v-518q-182 25 -364 0v518q10 10 46 19v66q-50 -11 -78 -30q-64 44 -214 44
q-45 0 -86.5 -5.5t-78.5 -16t-59 -29.5t-22 -44v-559q0 -15 11.5 -25t26.5 -7q96 17 208 17t209 -17h1h1h2v-1h1q3 0 5 1h1q96 17 208 17t209 -17q2 -1 5 -1q12 0 21 8q11 10 11 25v559q0 56 -107 81zM481 0q-87 12 -182 12t-182 -12v518q12 12 61.5 23.5t120.5 11.5
t120.5 -11.5t61.5 -23.5v-518z" />
    <glyph glyph-name="uniE67A" unicode="&#xe67a;" 
d="M914 -26q0 -31 -22.5 -53.5t-53.5 -22.5h-652q-31 0 -53.5 22.5t-22.5 53.5v313h-78v-313q0 -64 45 -109t109 -45h652q64 0 109 45t45 109v313h-78v-313zM838 780h-652q-64 0 -109 -45t-45 -109v-313h78v313q0 31 22.5 53.5t53.5 22.5h652q31 0 53.5 -22.5t22.5 -53.5
v-313h78v313q0 64 -45 109t-109 45zM522 643l85 -243l258 -6l-206 -156l75 -246l-212 147l-212 -147l75 246l-205 156l258 6z" />
    <glyph glyph-name="uniE67C" unicode="&#xe67c;" 
d="M529 756q-122 0 -225 -51.5t-163 -140.5t-60 -194q0 -74 22 -135.5t55.5 -102t83.5 -78.5t94.5 -62t101 -56.5t91.5 -58.5q39 33 95.5 67.5t102 58t94 59.5t81.5 74t54.5 98t21.5 136q0 105 -60.5 194t-163.5 140.5t-225 51.5zM318.5 269q-37.5 0 -64.5 26.5t-27 64.5
t27 65t64.5 27t64.5 -27t27 -65t-27 -64.5t-64.5 -26.5zM545 269q-38 0 -64.5 26.5t-26.5 64.5t26.5 65t64.5 27t65 -27t27 -65t-27 -64.5t-65 -26.5zM762.5 269q-37.5 0 -64.5 26.5t-27 64.5t27 65t64.5 27t64.5 -27t27 -65t-27 -64.5t-64.5 -26.5z" />
    <glyph glyph-name="uniE67F" unicode="&#xe67f;" 
d="M890 481q-17 18 -39 5q-3 -3 -6 -5l-328 -331l-332 329q-6 7 -14.5 9t-16.5 -0.5t-14 -8.5q-10 -9 -10 -22.5t10 -22.5l353 -350h1l1 -1v-1q10 -9 23 -9t22 9l350 354q3 2 5 5.5t3 6.5t1.5 6.5t0 7.5t-1.5 7t-3 6t-5 6z" />
    <glyph glyph-name="uniE682" unicode="&#xe682;" 
d="M512 748q-91 0 -168.5 -45t-122.5 -122.5t-45 -168.5q0 -52 34.5 -128.5t84 -149.5t99 -137.5t84 -105t34.5 -39.5q14 15 36.5 41.5t80.5 101t102.5 141.5t80.5 145.5t36 130.5q0 91 -45 168.5t-122.5 122.5t-168.5 45zM514 190q-93 0 -158.5 65.5t-65.5 158.5
t65.5 158.5t158.5 65.5t158.5 -65.5t65.5 -158.5t-65.5 -158.5t-158.5 -65.5zM514 550q-58 0 -99 -41t-41 -99t41 -99t99 -41t99 41t41 99t-41 99t-99 41z" />
    <glyph glyph-name="uniE683" unicode="&#xe683;" 
d="M427 385h170v-85h-170v85zM981 727h-42v-171h-256v171h-342v-171h-256v171h-42q-18 0 -30.5 -12.5t-12.5 -30.5v-853q0 -18 12.5 -30.5t30.5 -12.5h938q18 0 30.5 12.5t12.5 30.5v853q0 18 -12.5 30.5t-30.5 12.5zM939 -127h-854v598h854v-598zM427 44h170v-85h-170v85z
M768 812h85v-171h-85v171zM171 44h170v-85h-170v85zM171 812h85v-171h-85v171zM683 385h170v-85h-170v85zM427 215h170v-86h-170v86zM171 215h170v-86h-170v86zM683 215h170v-86h-170v86zM683 44h170v-85h-170v85zM171 385h170v-85h-170v85z" />
    <glyph glyph-name="uniE684" unicode="&#xe684;" 
d="M512 748q91 0 156 -63t65 -152.5t-65 -152.5t-156.5 -63t-156 63t-64.5 152.5t64.5 152.5t156.5 63zM758 251h-173l-73 -398h5q56 0 157.5 16.5t178.5 33t73 16.5q10 11 -1.5 64t-35.5 112.5t-60.5 107.5t-70.5 48zM275 251q-22 0 -47.5 -23t-46 -57.5t-39.5 -76
t-29 -78.5t-13 -64t8 -33q31 -7 80 -17.5t158 -29t166 -19.5l-74 398h-163zM512 -147zM512 -147z" />
    <glyph glyph-name="uniE685" unicode="&#xe685;" 
d="M880 334q0 33 -23 57t-56 26h-227q30 95 33 108q8 25 4 54.5t-14 54.5t-31.5 43.5t-49.5 21.5q-7 1 -14 1q-32 0 -59 -17t-41 -44q0 -2 -24 -76.5t-47 -148.5l-23 -73h-142q-9 0 -15.5 -6.5t-6.5 -16.5v-396q0 -9 6.5 -15.5t15.5 -6.5h570q27 2 46.5 20t25.5 43l1 1
q65 331 71 370zM301 -42q0 -8 -3 -11t-12 -3h-83q-9 0 -12 3t-3 11v324q0 8 3 11t12 3h83q9 0 12 -3t3 -11v-324zM766 -25q-3 -13 -13.5 -22t-25.5 -9h-93h-182h-91q-9 0 -12 3t-3 11v358q91 286 92 290q5 22 23 36t41 14q8 0 13 -1q28 -7 42.5 -46.5t6.5 -71.5l-50 -165h46
h240q15 -1 25.5 -12t10.5 -26q-1 -4 -35.5 -181t-34.5 -178z" />
    <glyph glyph-name="uniE686" unicode="&#xe686;" 
d="M820 168h-242q11 -46 15 -62q13 -57 2.5 -97t-35.5 -64t-50 -34t-42 -7q-30 6 -48.5 24t-37.5 60q-18 43 -82 224h-8h-154v484h154h2v-1h107l1 1h352q36 0 62 -26t26 -62l44 -352q0 -40 -16 -64t-50 -24zM270 652h-88v0v-396h1h87q7 0 15 2l-1 2h8v392h-22zM798 608
q0 18 -13 31t-31 13h-330h-88v-418v-3q75 -210 88 -239q12 -25 32 -35t34 -9q22 3 50 41t16 91l-33 132h275q18 0 31 13t13 31zM798 608z" />
    <glyph glyph-name="uniE688" unicode="&#xe688;" 
d="M919 812h-814q-43 0 -74 -30.5t-31 -74.5v-814q0 -44 31 -74.5t74 -30.5h814q43 0 74 30.5t31 74.5v814q0 44 -31 74.5t-74 30.5zM973 -107q0 -23 -15.5 -38.5t-38.5 -15.5h-814q-23 0 -38.5 15.5t-15.5 38.5v814q0 23 15.5 38.5t38.5 15.5h814q23 0 38.5 -15.5
t15.5 -38.5v-814zM802 612q-20 0 -34.5 -14.5t-14.5 -34.5q0 -22 18 -38l3 -1l-1 -3q-15 -97 -89 -160t-172 -63t-172 63t-89 160l-1 3l3 1q18 16 18 38q0 20 -14.5 34.5t-34.5 14.5t-34.5 -14.5t-14.5 -34.5q0 -27 25 -42l2 -1v-3q17 -115 106 -192.5t206 -77.5t206 77.5
t106 192.5v3l2 1q25 15 25 42q0 20 -14.5 34.5t-34.5 14.5z" />
    <glyph glyph-name="uniE68F" unicode="&#xe68f;" 
d="M913 13q5 -16 8 -39.5t3 -48t-4 -45.5q-4 -22 -11 -33q-6 -7 -28.5 -14.5t-56.5 -13.5q-33 -6 -76 -11q-42 -6 -84 -10t-82 -5q-41 -2 -69 -2q-30 0 -69 2q-43 3 -81 6q-41 3 -82 8q-42 4 -75 9q-32 6 -57 11q-24 5 -29 10q-10 8 -15.5 49.5t4.5 107.5q5 38 30 57.5
t57.5 31t68.5 20.5t62 27q21 13 32.5 25.5t16.5 24.5t5 25q0 12 -1 30q-2 24 -16 37q-13 13 -30 28q-9 6 -15 19l-12 26q-5 15 -10 32q-2 2 -6 8t-8 15t-10 27q-5 17 -7 31t0 24q2 12 6 21q0 39 4 77q5 32 15 70q10 37 32 67q20 28 43 46t47.5 28t50 14t49.5 4
q25 -3 41 -6.5t26 -9t17 -13.5t15 -16h21q10 0 19 -2.5t18.5 -10t20.5 -22.5q26 -33 38 -72t18 -75q5 -40 6 -80q2 -6 3 -13.5t2 -18.5t-2 -28q-2 -22 -6 -35q-5 -12 -10 -19q-6 -8 -12 -11q-5 -17 -10 -32l-12 -26q-6 -13 -15 -19q-18 -15 -31 -26q-12 -11 -16 -36
q-3 -15 -2 -31q1 -15 8 -31t23 -30.5t45 -25.5q25 -10 56 -18q30 -8 58 -19t50 -27.5t31 -42.5zM559 49q3 7 0.5 14t-8.5 14t-13 14h-51q-7 -7 -12 -14q-4 -6 -7 -12.5t0 -11.5q9 -18 14 -27q5 -12 12 -19l-7 -28q-5 -20 -8 -37q-4 -18 -7 -37q-3 -17 -3 -26q0 -5 5 -13
q5 -7 12 -16q7 -8 14 -13.5t12.5 -5.5t13.5 5.5t15 12.5t12 15.5t5 13.5q0 7 -4 23q-2 13 -7 36q-3 19 -8 38q-4 19 -8 30q7 6 13 16t15 28zM559 49z" />
    <glyph glyph-name="uniE690" unicode="&#xe690;" 
d="M44 804l973 -973l-36 -36l-973 973zM980 804l36 -36l-973 -973l-36 36z" />
    <glyph glyph-name="uniE695" unicode="&#xe695;" 
d="M512 811q-104 0 -199 -40.5t-163 -109t-108.5 -163t-40.5 -199t40.5 -199t108.5 -163t163 -109t199 -40.5t199 40.5t163 109t108.5 163t40.5 199t-40.5 199t-108.5 163t-163 109t-199 40.5zM532 15q-14 -14 -35.5 -14t-35.5 14t-14 36.5t13.5 36.5t35.5 14t36 -14
t14 -36.5t-14 -36.5zM669.5 403.5q-6.5 -21.5 -22.5 -43.5q-8 -14 -42 -45q-31 -30 -39 -42.5t-13.5 -33t-7.5 -57.5q0 -1 -0.5 -3.5t-3.5 -9.5t-8 -11.5t-14.5 -8.5t-22.5 -4q-21 0 -29.5 13.5t-7.5 27.5l3 32q7 40 18 66q15 34 48 74q35 41 46 60q8 13 8 32q0 29 -20 47
q-28 23 -58 23q-41 0 -65 -22q-20 -19 -20 -58q1 -2 1.5 -5t-1 -11.5t-5 -15t-13 -11.5t-24.5 -5q-22 0 -33 10.5t-12 21.5v10q-1 73 48 121t129 48q51 0 87.5 -19.5t58 -57t21.5 -78.5q0 -23 -6.5 -44.5z" />
    <glyph glyph-name="uniE69C" unicode="&#xe69c;" 
d="M962 151q-7 -1 -8 -1h-229l-10 1q19 56 23 69q2 5 11 5h125h12v337h-748v-336h277l-6 -8q-42 -46 -57 -61q-6 -7 -12 -7h-275l-3 1v599h900v-599zM318 -150q-37 15 -55 37q-23 30 -8 57q2 3 35 47q21 -80 105 -103q-4 -3 -17 -12t-21.5 -14.5t-16.5 -11.5h-22zM623 115
q-15 -13 -16 -14q-65 -65 -118 -119q-8 -8 -16 -6q-69 26 -95 94q-3 8 3 14q33 34 133 135l3 2q12 -15 12 -36q0 -10 10 -14q26 -13 37 -37q3 -5 10 -7q5 -1 36 -7q0 -2 1 -5zM213 413v74h373v-74h-373zM213 300v75h299v-70q0 -3 -5 -5h-6h-277h-11zM635 139
q-22 6 -29.5 10.5t-21.5 20.5q-7 8 -9 9q-12 4 -19.5 14t-10 17.5t-7.5 23.5q90 38 161 66q-31 -78 -64 -161zM662 413v74h149v-74h-149zM427 -79q-9 -13 -14.5 -14.5t-19.5 3.5q-55 23 -79 77q-6 15 -4.5 21t14.5 16q25 -72 103 -103zM457 -44q-10 -13 -15 -14.5t-19 4.5
q-53 23 -75 74q-5 13 -3.5 19t13.5 16q24 -69 99 -99z" />
    <glyph glyph-name="uniE6A2" unicode="&#xe6a2;" 
d="M677 147h-343q-5 0 -8.5 -3t-3.5 -8t3.5 -8t8.5 -3h343q4 0 7.5 3t3.5 8t-3.5 8t-7.5 3zM677 241h-343q-5 0 -8.5 -3.5t-3.5 -8t3.5 -8t8.5 -3.5h343q4 0 7.5 3.5t3.5 8t-3.5 8t-7.5 3.5zM677 334h-343q-5 0 -8.5 -3.5t-3.5 -8t3.5 -8t8.5 -3.5h343q4 0 7.5 3.5t3.5 8
t-3.5 8t-7.5 3.5zM334 403h157q4 0 7.5 3t3.5 8t-3.5 8t-7.5 3h-157q-5 0 -8.5 -3t-3.5 -8t3.5 -8t8.5 -3zM833 552l-122 120q-8 8 -20 8h-481q-12 0 -20 -8t-8 -20v-686q0 -12 9 -20l85 -85q8 -8 19.5 -8t19.5 8l87 87l90 -87q8 -8 19.5 -8t19.5 8l91 87l90 -87
q8 -8 19.5 -8t19.5 8l82 78q8 9 8 21v572q0 12 -8 20zM731 -103l-90 87q-8 8 -19.5 8t-19.5 -8l-90 -87l-90 87q-9 8 -20 8t-20 -8l-87 -88l-66 65v673h446v-92q0 -7 4.5 -12t11.5 -5h106v-571z" />
    <glyph glyph-name="uniE6A4" unicode="&#xe6a4;" 
d="M1016 -140h-29v725q0 8 -8 8h-276q-8 0 -8 7v204q0 8 -7 8h-643q-8 0 -8 -8v-925q0 -8 -5.5 -13.5t-13 -5.5t-12.5 -5t-5 -13v-46q0 -8 7 -8h1008q7 0 7 8v57q0 7 -7 7zM331 163q0 -7 -8 -7h-131q-8 0 -8 7v101h139q8 0 8 -7v-94zM331 -4q0 -8 -8 -8h-131q-8 0 -8 8v101
h139q8 0 8 -8v-93zM331 345q0 -8 -8 -8h-131q-8 0 -8 8v100h139q8 0 8 -7v-93zM331 528q0 -8 -8 -8h-131q-8 0 -8 8v101h139q8 0 8 -8v-93zM550 163q0 -7 -7 -7h-132q-8 0 -8 7v101h140q7 0 7 -7v-94zM550 -6q0 -7 -7 -7h-132q-8 0 -8 7v101h140q7 0 7 -8v-93zM550 345
q0 -8 -7 -8h-132q-8 0 -8 8v100h140q7 0 7 -7v-93zM550 528q0 -8 -7 -8h-132q-8 0 -8 8v101h140q7 0 7 -8v-93zM847 163q0 -7 -8 -7h-57q-7 0 -7 7v101h64q8 0 8 -7v-94zM847 -8q0 -8 -8 -8h-57q-7 0 -7 8v101h64q8 0 8 -8v-93zM847 345q0 -8 -8 -8h-57q-7 0 -7 8v100h64
q8 0 8 -7v-93z" />
    <glyph glyph-name="uniE6AB" unicode="&#xe6ab;" 
d="M598 108q17 36 45 64h-520v64h676h1h2h35v-3q31 -5 59 -18v533h-832v-832h533q-21 45 -21 96q0 16 2 32h-455v64h475zM480 620h357v-64h-357v64zM123 492h714v-64h-714v64zM123 364h714v-64h-714v64zM801 172q-66 0 -113 -47t-47 -113.5t47 -113.5t113 -47t113 47
t47 113.5t-47 113.5t-113 47zM840 -39l-45 -45l-91 90l45 46l46 -46l90 91l45 -45z" />
    <glyph glyph-name="uniE6AD" unicode="&#xe6ad;" 
d="M713 -186h-67l-47 571h-145q-10 95 -49 149v34h117q11 93 58.5 159t115.5 63q70 -2 115 -59t56 -163h154v-753zM495 507q0 -16 11 -27t26.5 -11t26.5 11t11 26.5t-11 26.5t-26.5 11t-26.5 -11t-11 -26zM695 754q-56 2 -95 -53.5t-48 -132.5h152h17h117q-9 88 -46.5 136
t-96.5 50zM855 544q-15 0 -26.5 -11t-11.5 -26.5t11.5 -26.5t27 -11t26.5 11t11 26.5t-11 26.5t-27 11zM569 352l44 -537l-304 -1l-304 1l44 537h99q9 78 49 134t98 54q59 -2 97 -50.5t47 -137.5h130zM125 300q0 -13 9 -22t22.5 -9t23 9t9.5 22.5t-9.5 22.5t-23 9t-22.5 -9
t-9 -23zM294 509q-48 2 -81 -44.5t-40 -112.5h128h15h99q-8 75 -40 115t-81 42zM397 300q0 -13 9.5 -22t22.5 -9t22.5 9t9.5 22.5t-9.5 22.5t-22.5 9t-22.5 -9t-9.5 -23z" />
    <glyph glyph-name="uniE6B6" unicode="&#xe6b6;" 
d="M757 300q2 22 -13 37l-396 396q-14 14 -33.5 14t-33.5 -14t-14 -34t13 -34l366 -365l-366 -365q-14 -14 -14 -34t14 -34t34 -14t34 14l396 396q15 15 13 37zM584 300z" />
    <glyph glyph-name="uniE6BC" unicode="&#xe6bc;" 
d="M289 530q-94 45 -168 -1q-57 -36 -64 -100q-7 -77 68 -129q66 -45 180 -55q-18 25 -40 37.5t-49.5 25t-49.5 32.5q-53 46 -49 102q3 45 42 55q61 16 151 -79q24 -25 40 -52t30.5 -48t42.5 -39q-2 9 -17.5 49.5t-28 83.5t-22 93.5t-0.5 96.5t38 75q39 40 89 47t91 -13
t69 -64t29 -100q0 -39 -15.5 -87t-37 -99.5t-28.5 -81.5q19 12 42.5 42t45 60.5t46.5 59t55.5 44.5t62.5 12t45.5 -22.5t9.5 -42t-15 -45.5t-26 -38q-25 -28 -55.5 -44t-54.5 -28t-39 -31q103 8 171 52.5t81 101.5v44q-8 35 -39 64q-13 12 -30 21q-79 43 -166 1
q12 58 3.5 102t-36 75.5t-64 50t-80.5 23.5h-78q-76 -10 -126 -53q-10 -9 -18 -17t-13.5 -18t-9.5 -16t-6.5 -19t-4 -19t-2 -23t-0.5 -24v-30v-32zM439 -39q-26 14 -32.5 44t-3 66t4 74t-19.5 79t-66 72q8 -25 21 -43t20.5 -36t6.5 -53q0 -15 -5 -64t-5 -94
q0 -42 20.5 -58.5t52.5 -20.5h104q31 2 53.5 9t37 15.5t22.5 23t11.5 28t2.5 36t-3.5 40t-8.5 45.5q-6 37 -5.5 55t8 34.5t16 25.5t19.5 29t17 44q-45 -30 -69 -65.5t-27.5 -66t-2 -64t5.5 -60t-4.5 -52.5t-32.5 -44q13 57 14 113.5t-15.5 109.5t-52.5 79q3 -30 15.5 -76.5
t14.5 -61.5q4 -43 2.5 -57t-7.5 -41t-8 -49q-19 2 -31 1.5t-19 -1.5t-8 0q-2 17 -9 35q-14 23 -15 60.5t6 69t15.5 69t10.5 51.5q-35 -25 -51 -79t-14 -110.5t14 -111.5zM423 279zM590 279z" />
    <glyph glyph-name="uniE6BF" unicode="&#xe6bf;" 
d="M748 470h-288v141q0 25 -16 34t-38 -5l-278 -181q-22 -14 -22 -35t22 -35l276 -179q22 -13 39 -3t17 32v122h207q32 0 55.5 -14.5t34.5 -35.5t17 -41.5t6 -35.5l1 -14q-1 -1 0 -9.5t-1.5 -23t-5.5 -31t-11.5 -34t-20 -31.5t-31 -23t-44.5 -9h-425q-2 0 -5.5 -0.5t-12 -4
t-15.5 -9t-12 -17t-5 -25.5q0 -23 12.5 -36.5t24.5 -15.5l13 -2h506q34 0 62 15.5t45 38.5t30 54t19 57.5t9.5 54t4 38t0.5 15.5t-0.5 14t-4 35t-9.5 49t-19 52t-30 49.5t-45 34.5t-62 14z" />
    <glyph glyph-name="uniE6C4" unicode="&#xe6c4;" 
d="M886 604h-748q-31 0 -53 -22t-22 -53v-458q0 -31 22 -53t53 -22h748q31 0 53 22t22 53v458q0 31 -22 53t-53 22zM868 550l-298 -264q-39 -35 -58 -35t-58 35l-298 264h712zM119 88v414l233 -205zM158 50l234 207l38 -34q34 -29 82 -29t82 29l38 34l234 -207h-708zM905 88
l-233 209l233 205v-414zM905 88z" />
    <glyph glyph-name="uniE6C8" unicode="&#xe6c8;" 
d="M295 -82q-24 0 -42 15.5t-18 47.5v265h-55q-16 0 -30 18q-15 18 -15 42v7l354 367q7 6 18 6q12 0 19 -6q1 -1 356 -363l5 -5v-7q0 -24 -8 -38q-11 -19 -35 -19h-53l-1 -269v-2q-4 -14 -13 -28q-21 -31 -55 -31h-131v17q1 243 0 252q0 4 -2.5 9.5t-5.5 5.5h-142
q-3 0 -6.5 -4.5t-3.5 -9.5v-270h-132h-4zM182 281h88v-300q0 -29 25 -29h2h1h1h98v236q0 19 13 33.5t31 14.5h142q21 0 34 -20q8 -13 9 -28v-236h96q24 0 34 32l1 299h87q4 0 5 2q3 4 4 13q-342 348 -345 351l-338 -349q3 -14 12 -19z" />
    <glyph glyph-name="uniE6CC" unicode="&#xe6cc;" 
d="M739 739h-130q-64 0 -98 -13.5t-76 -56.5l-325 -324q-35 -35 -37 -90q-2 -58 37 -97l260 -259q37 -38 96 -38q53 0 91 38l324 324q43 43 56.5 78t13.5 96v130q0 117 -47.5 164.5t-164.5 47.5zM916 397q0 -55 -11 -83t-49 -66l-324 -324q-27 -28 -66 -28q-44 0 -71 28
l-260 259q-28 28 -27 71q2 41 27 66l324 324q38 38 65.5 49t84.5 11h130q103 0 140 -37t37 -140v-130zM706 494zM609 494.5q0 40.5 28.5 69t69 28.5t69 -28.5t28.5 -69t-28.5 -69t-69 -28.5t-69 28.5t-28.5 69z" />
    <glyph glyph-name="uniE6CE" unicode="&#xe6ce;" 
d="M921 554v4h-1q-2 6 -6 10l-179 183q-6 7 -17 8h-538q-32 0 -54.5 -21.5t-22.5 -52.5v-775q0 -30 22.5 -52t54.5 -22h664q32 0 54.5 22t22.5 52v636v8zM844 -113h-664q-11 0 -18.5 7t-7.5 16v775q0 10 7.5 16.5t18.5 6.5h526l164 -168v-630q0 -9 -7.5 -16t-18.5 -7z
M594 311q29 20 46 51t17 67q0 60 -44 102.5t-105.5 42.5t-105 -42.5t-43.5 -102.5q0 -37 17.5 -69t48.5 -52q-57 -24 -91.5 -75t-34.5 -114q0 -25 19 -45t51 -31t68 -16.5t75 -5.5t75 5.5t68 16.5t51 31t19 45q0 64 -36.5 116t-94.5 76zM401 429q0 42 31.5 72t75.5 30
t75 -30t31 -72.5t-31 -72.5t-75 -30t-75.5 30.5t-31.5 72.5zM512 64q-73 0 -122 17t-49 38q0 68 50 116.5t121 48.5t121 -48.5t50 -116.5q0 -21 -49 -38t-122 -17zM512 64z" />
    <glyph glyph-name="uniE6CF" unicode="&#xe6cf;" 
d="M510 601q-78 0 -133 -55t-55 -133t55 -133t133 -55t133 55t55 133t-55 133t-133 55zM509.5 278q-55.5 0 -95 39.5t-39.5 95t39.5 95t95 39.5t95 -39.5t39.5 -95t-39.5 -95t-95 -39.5zM806 267q34 68 34 143q0 88 -44.5 163t-120.5 118.5t-165.5 43.5t-165.5 -43.5
t-120 -118.5t-44 -163q0 -75 34 -143l-134 -229q85 -17 171 -35l115 -128l123 211q17 -1 21 -1t21 1l123 -211l114 128l172 35zM359 -41q-41 46 -80 84l-125 31l85 147q34 -44 88 -78.5t110 -48.5zM510 137q-112 0 -194 79t-82 190q0 73 37.5 138.5t101.5 105t137 39.5
q111 0 193 -82.5t82 -194t-82 -193.5t-193 -82zM747 50q-17 -17 -38.5 -40t-34.5 -37l-14 -14l-78 135q55 14 105.5 48t85.5 79l92 -147q-8 -1 -20 -3t-42.5 -8t-55.5 -13z" />
    <glyph glyph-name="uniE6D0" unicode="&#xe6d0;" 
d="M903 302h-112v-84q0 -12 -8 -20.5t-20 -8.5h-56q-11 0 -19.5 8.5t-8.5 20.5v84h-336v-84q0 -12 -8 -20.5t-20 -8.5h-56q-11 0 -19.5 8.5t-8.5 20.5v84h-112v57h784v-57zM399 585h224v-57h-224v57zM903 528h-224v57q0 23 -16.5 39.5t-39.5 16.5h-224q-23 0 -39.5 -16.5
t-16.5 -39.5v-57h-224q-23 0 -39.5 -16.5t-16.5 -39.5v-452q0 -24 16.5 -40.5t39.5 -16.5h784q23 0 39.5 16.5t16.5 40.5v452q0 23 -16.5 39.5t-39.5 16.5z" />
    <glyph glyph-name="uniE6D1" unicode="&#xe6d1;" 
d="M743 310q-17 4 -21.5 10.5t-1.5 11.5l4 6q1 2 3.5 6.5t6 17t4.5 25t-4 28t-18 27.5q-31 26 -72 22.5t-77.5 -15.5t-36.5 -14q-10 -3 -17.5 -4.5t-11.5 0t-6 3.5t-1.5 8t1 10t3 13.5t3.5 15.5q0 16 -2.5 30t-12 29.5t-25 23.5t-44 7.5t-66.5 -13.5q-37 -13 -76.5 -39
t-69 -54t-54 -54t-36.5 -43l-13 -17q-22 -30 -37.5 -60.5t-21.5 -52.5t-8.5 -40t-2.5 -27l1 -9q6 -53 31.5 -94.5t61 -67.5t84 -44t93 -26.5t94.5 -12.5q81 -6 168 13.5t162 66.5t106 113q19 39 19 73t-12 55.5t-31 38t-36 24t-30 9.5zM408 -31q-118 -6 -201 46t-83 131
q0 78 82.5 134.5t201.5 61.5q120 6 202.5 -39.5t82.5 -122.5q0 -80 -84 -143t-201 -68zM377 273q-32 -4 -57.5 -15t-39.5 -26t-24 -32.5t-13.5 -33.5t-5 -30t-1.5 -22l1 -8v-5q0 -3 2.5 -12.5t6 -18t12.5 -18.5t22 -17q71 -35 134 -21t101 64q15 18 20 45.5t-2.5 55.5
t-24.5 51.5t-51.5 35.5t-79.5 7zM337 64.5q-22 -2.5 -37.5 9t-15.5 29.5q0 19 14.5 35t35.5 19q25 2 40.5 -10t15.5 -31t-15.5 -34t-37.5 -17.5zM430.5 144.5q-7.5 -5.5 -15.5 -5t-12 7.5q-5 6 -3 15.5t9 14.5q9 6 17 5t12 -7.5t2 -15.5t-9.5 -14.5zM820 375q9 0 16.5 6
t8.5 15v3q4 36 -1.5 63t-18 42t-28 25t-32 12.5t-30.5 3.5t-23 -1l-9 -1q-10 0 -18 -7.5t-8 -18.5t8 -18.5t18 -7.5q86 19 93 -55q1 -19 -2 -36q0 -10 7.5 -17.5t18.5 -7.5zM801 678q-55 13 -129 -1q-1 0 -2 -1t-2 -1h-1q-12 -4 -19.5 -14t-7.5 -23q0 -15 11 -26.5t26 -11.5
q21 3 34 8q6 1 19.5 2.5t36 -4.5t45 -14.5t46.5 -28.5t40 -47q29 -65 12 -126q-8 -18 -8 -36q0 -15 11 -24.5t27 -9.5t24.5 6t11.5 26q20 61 15.5 110.5t-21.5 86.5t-46.5 63.5t-60 42.5t-62.5 23z" />
    <glyph glyph-name="uniE6D3" unicode="&#xe6d3;" 
d="M768 736q-106 0 -181 -70t-75 -168q0 -54 28 -101.5t86 -76.5q0 -19 -15.5 -46.5t-36.5 -49.5q36 3 66.5 11.5t40.5 13t33 16.5q28 -5 54 -5q106 0 181 69.5t75 168.5t-75 168.5t-181 69.5zM353 66q50 0 85.5 35t35.5 85t-35.5 85.5t-85.5 35.5t-85 -35.5t-35 -85.5
t35 -85t85 -35zM353.5 18q-109.5 0 -178 -49t-91.5 -129h538q-23 80 -91 129t-177.5 49z" />
    <glyph glyph-name="uniE6D4" unicode="&#xe6d4;" 
d="M229 610q12 -36 35 -49.5t46 0t35 49.5q15 8 17 27q3 25 -10 25q-2 28 -18 45.5t-46 17.5q-31 0 -47.5 -17t-18.5 -46q-14 0 -11 -25q3 -19 18 -27zM679 610q12 -36 35 -49.5t46 0t35 49.5q15 8 18 27q3 25 -11 25q-2 29 -18.5 46t-47.5 17q-30 0 -46 -17.5t-18 -45.5
q-13 0 -10 -25q2 -19 17 -27zM822 550l-28 6l-57 -114l-57 114l-27 -6q-36 -8 -54 -39l-82 -178q-2 -3 -5 -3t-5 3q-13 29 -35 77t-34 74l-13 27q-18 31 -54 39l-27 6l-57 -114l-57 114l-28 -6q-28 -6 -46 -27.5t-18 -48.5v-210q0 -21 15 -35.5t36 -14.5v-312q0 -21 15 -36
t36 -15h94q21 0 35.5 15t14.5 36v502q0 5 5 6t7 -4l84 -182q10 -20 32.5 -20t31.5 20l84 182q2 5 7 4t5 -6v-502q0 -21 14.5 -36t36.5 -15h93q21 0 36 15t15 36v312q21 0 36 14.5t15 35.5v210q0 27 -18 48.5t-46 27.5z" />
    <glyph glyph-name="uniE6D6" unicode="&#xe6d6;" 
d="M241 722q-42 0 -71 -29.5t-29 -71t29 -71t71 -29.5t71.5 29.5t29.5 71t-29.5 71t-71.5 29.5zM783 521q42 0 71 29.5t29 71t-29 71t-71 29.5t-71.5 -29.5t-29.5 -71t29.5 -71t71.5 -29.5zM844 502h-117q-11 0 -22 -2q25 -38 25 -84v-163q0 -65 -46 -110v-265h70h57h77v294
q24 12 38 34.5t14 50.5v150q0 39 -28 67t-68 28zM514.5 540q45.5 0 77.5 32t32 77.5t-32 77.5t-77.5 32t-77.5 -32t-32 -77.5t32 -77.5t77.5 -32zM575 520h-128q-42 0 -72.5 -30.5t-30.5 -73.5v-163q0 -30 15 -54.5t41 -37.5v-320h84h61h78v319q25 13 40.5 38t15.5 55v163
q0 43 -30.5 73.5t-73.5 30.5zM294 416q0 46 25 84q-11 2 -22 2h-117q-40 0 -68 -28t-28 -67v-150q0 -28 14 -50.5t38 -34.5v-294h77h57h70v265q-46 45 -46 110v163z" />
    <glyph glyph-name="uniE6D7" unicode="&#xe6d7;" 
d="M510 634q-104 0 -178 -72.5t-74 -174.5t74 -174t178 -72t178 72t74 174t-74 174.5t-178 72.5zM220 293v227h-10q39 85 120 137.5t180 52.5t180 -52.5t120 -137.5h-9v-227q48 0 82 33t34 80q0 32 -16 58.5t-44 41.5q-38 107 -133 174.5t-214 67.5t-214 -67.5t-133 -174.5
q-27 -15 -43.5 -41.5t-16.5 -58.5q0 -47 34 -80t83 -33zM761 162q-106 -97 -251 -97t-251 97q-91 -46 -143 -125t-52 -183h895q0 105 -53 183.5t-145 124.5zM761 162z" />
    <glyph glyph-name="uniE6D8" unicode="&#xe6d8;" 
d="M93 320h30q13 -2 20 9q5 9 8 27q-11 16 -17 37q-6 4 -9 14q-4 10 -4 27v3l3 2q0 1 1 1q-4 35 -0.5 53.5t15.5 30.5q19 19 49.5 19.5t48.5 -16.5q26 -23 19 -86q2 -1 3 -2l2 -2v-3q0 -16 -3 -27q-3 -9 -9 -14q-5 -19 -16 -35q4 -23 11 -33q7 -4 19 -3h28q6 -7 11 -22
q4 45 12 56q4 11 57 13q4 16 6 28q-15 13 -23 36q-3 1 -11 1h-12q-5 38 1 82.5t18 56.5q18 19 53.5 19.5t53.5 -15.5q13 -12 20.5 -59t2.5 -81q-1 -2 -11.5 -2.5t-11.5 -1.5q-9 -22 -25 -36q3 -15 8 -28q54 -2 57 -13q2 -3 4 -8q9 58 22 73h14h13q13 -1 19 8q5 8 7 25
q-11 14 -15 33q-6 3 -9 12q-3 10 -3 25v3l2 1l1 1q-6 56 14 76q17 17 44 17.5t44 -15.5q23 -21 17 -77q1 0 3 -2l2 -1v-3q0 -15 -3 -24t-8 -13q-5 -18 -14 -31q3 -22 10 -31q6 -3 16 -2h25q7 -8 13 -31l-214 -237l-185 134l-263 -179q5 173 39 210zM68 58l58 -130l189 128
l208 -151l33 39l301 337l47 -57l70 299l-247 -83l45 -54l-266 -295l-189 136z" />
    <glyph glyph-name="uniE6DC" unicode="&#xe6dc;" 
d="M991 214q-2 14 -13 24t-26 12q-23 4 -51 -8q-5 -2 -31 -14v1q3 15 -5 26t-23 15q-23 5 -52 -5q-17 -6 -33 -21q-1 2 -4 6q-27 32 -64 18q-20 -7 -41 -18q-6 -4 -71 -43q-2 -1 -11 -6v-1q16 -2 19 -2h25q19 0 30 -1q30 -1 51 -8q27 -9 38 -29q6 -12 8 -32q2 -34 -26 -55
q-31 -23 -78 -24h-155q-21 0 -42 8q-40 14 -82 52q-2 2 -6 7q2 -1 35 -11q61 -20 115 -19q11 1 62 1h63q16 0 29 2q23 3 36 13q14 11 11 31q-3 15 -19 20q-10 4 -15 4q-8 0 -76 4h-10q-8 0 -12 1q-32 2 -71 17q-35 13 -58 31q-62 46 -103 69q-40 23 -78 20q-31 -3 -61 -16
l-146 -64q-3 -2 -10 -5t-8 -4q87 -194 106 -234l5 3q52 33 57 36q26 17 49 9q16 -5 30 -13q23 -11 74 -37.5t78 -39.5q31 -16 55 -25q27 -11 57 -7q25 3 54 20q100 61 349 228q22 15 35 31q13 18 10 33zM532 280q50 -1 86 35t37 87t-35 87.5t-88 36.5q-50 1 -86.5 -35
t-36.5 -87q-1 -51 35 -87.5t88 -36.5zM520 457q1 2 3 2h27v-112h-37v74h-28v2q23 23 35 34zM602 567q46 -19 76 -60q2 -4 8 -4q33 2 57 27.5t24 59.5q-1 10 -1 12q-6 36 -35 57t-65 15q-34 -6 -55 -35t-15 -64q1 -6 6 -8zM673 627q1 1 4 1h16v-78h-25v52h-20q19 20 25 25z
" />
    <glyph glyph-name="uniE6DD" unicode="&#xe6dd;" 
d="M708 378q-2 4 -16 4h-105q22 -101 61 -160q36 53 58 136q4 16 2 20zM513 812q-1 -3 -4 -7.5t-17 -17.5t-32 -25t-52 -26.5t-75.5 -25t-104 -18t-134.5 -7.5v-520q0 -33 14.5 -66.5t38.5 -62.5t55.5 -57.5t66.5 -52t69.5 -44t66 -36t56 -27t38.5 -17.5l14 -5q9 3 24 9.5
t59 27.5t83.5 43.5t88 56.5t83 68.5t58.5 77.5t24 85v520q-277 0 -390 94q-22 19 -30 33zM445 265v-163q0 -20 -19 -22q-20 2 -20 22v146q0 15 -14 15h-39q-4 -100 -32 -171q-8 -18 -27 -12q-16 8 -10 26q35 84 35 195v234q0 16 18 16q16 0 16 -16v-116h49v116q0 16 18.5 16
t18.5 -16v-116h34q16 0 18 -18q-2 -19 -18 -19h-120v-85h59q35 2 33 -32zM765 80q-12 -12 -32 0q-47 30 -85 73q-45 -42 -98 -75q-20 -12 -34 2q-10 20 10 32q61 37 95 76q-53 79 -73 192h-6q0 -103 -10 -162q-10 -63 -39 -124q-10 -20 -28 -14q-16 8 -8 28q28 55 36 110
q8 51 8 160v112q-2 39 39 37q114 0 193 16q20 4 24 -16q2 -21 -18 -25q-73 -14 -181 -16q-18 0 -18 -18v-49h171q52 4 36 -47q-24 -113 -73 -184q24 -37 83 -76q18 -14 8 -32z" />
    <glyph glyph-name="uniE6DE" unicode="&#xe6de;" 
d="M335 284h75v75h-75v-75zM448 473h-76v-76h76v76zM335 473h-76v-76h76v76zM448 284h76v75h-76v-75zM561 473h-75v-76h75v76zM675 473h-76v-76h76v76zM788 473h-75v-76h75v76zM561 284h76v75h-76v-75zM297 359h-151v-75h151v75zM221 473h-75v-76h75v76zM713 170h75v76h-75
v-76zM826 397h76v76h-76v-76zM826 170h76v76h-76v-76zM921 586h-813q-40 0 -67.5 -27.5t-27.5 -66.5v-359q0 -40 27.5 -67.5t67.5 -27.5h813q39 0 66.5 27.5t27.5 67.5v359q0 39 -27.5 66.5t-66.5 27.5zM996 151q0 -39 -27.5 -66.5t-66.5 -27.5h-775q-40 0 -67.5 27.5
t-27.5 66.5v322q0 39 27.5 66.5t67.5 27.5h775q39 0 66.5 -27.5t27.5 -66.5v-322zM278 170h76v76h-76v-76zM391 170h284v76h-284v-76zM750 359h-75v-75h75v75zM146 170h75v76h-75v-76zM788 284h114v75h-114v-75z" />
    <glyph glyph-name="uniE6DF" unicode="&#xe6df;" 
d="M909 333l-384 384q-19 19 -45 19t-45 -19t-19 -45.5t19 -44.5l275 -275h-582q-26 0 -45 -19t-19 -45t19 -45t45 -19h581l-274 -275q-19 -19 -19 -45.5t19 -45t45 -18.5t45 19l384 384q19 18 19 45t-19 45z" />
    <glyph glyph-name="uniE6E0" unicode="&#xe6e0;" 
d="M707 443l-144 -143l144 -143q10 -11 10 -26t-10.5 -25.5t-25.5 -10.5t-26 10l-143 144l-143 -144q-11 -10 -26 -10t-25.5 10.5t-10.5 25.5t10 26l144 143l-144 143q-10 11 -10 26t10.5 25.5t25.5 10.5t26 -10l143 -144l143 144q11 10 26 10t25.5 -10.5t10.5 -25.5
t-10 -26z" />
    <glyph glyph-name="uniE6E1" unicode="&#xe6e1;" 
d="M951 -212v73h73v-73h-73zM878 -66h73v-73h-73v73zM805 7h73v-73h-73v73zM731 -66h74v-73h-74v-73h-73v73h-73v73h73v73h-73v74h73v73h73v-73h74v-74h-74v-73zM878 -212h-73v73h73v-73zM512 -212v73h73v-73h-73zM512 -66v73h73v-73h-73zM585 227h73v-73h-73v73zM731 227
h74v-73h-74v73zM878 154v-73h-73v73h73zM951 81h73v-74h-73v74zM951 227h73v-73h-73v73zM585 812h439v-439h-439v439zM658 446h293v293h-293v-293zM731 666h147v-147h-147v147zM0 227h439v-439h-439v439zM73 -139h293v293h-293v-293zM146 81h147v-147h-147v147zM0 812h439
v-439h-439v439zM73 446h293v293h-293v-293zM146 666h147v-147h-147v147z" />
    <glyph glyph-name="uniE6E2" unicode="&#xe6e2;" 
d="M785 -114l-276 133l-278 -129l44 298l-211 219l303 51l147 264l144 -266l302 -56l-214 -216z" />
    <glyph glyph-name="uniE6E3" unicode="&#xe6e3;" 
d="M793 487v156q0 13 -9 22t-22 9h-219v63q0 26 -18 44t-44 18h-125q-26 0 -44 -18t-18 -44v-63h-219q-13 0 -22 -9t-9 -22v-624q0 -13 9 -22t22 -9h281v-187h437l187 187v499h-187zM356 737h125v-63h-125v63zM169 612h499v-62h-499v62zM793 -111v99h99zM918 50h-188v-187
h-312v562h500v-375z" />
    <glyph glyph-name="uniE6E4" unicode="&#xe6e4;" 
d="M512 -36q-41 0 -84 7l-197 -119v199q-78 55 -123 135t-45 171q0 107 60 197.5t163.5 143t225.5 52.5t225.5 -52.5t163.5 -143t60 -197.5t-60 -197.5t-163.5 -143t-225.5 -52.5zM512 694q-107 0 -197.5 -45t-143 -122.5t-52.5 -169.5q0 -84 45 -156.5t123 -119.5l-2 -130
l132 80q48 -11 95 -11q107 0 197.5 45t143 123t52.5 169.5t-52.5 169t-143 122.5t-197.5 45zM736.5 301q-23.5 0 -40 16.5t-16.5 39.5t16.5 39.5t40 16.5t40 -16.5t16.5 -39.5t-16.5 -39.5t-40 -16.5zM512 301q-23 0 -39.5 16.5t-16.5 39.5t16.5 39.5t39.5 16.5t39.5 -16.5
t16.5 -39.5t-16.5 -39.5t-39.5 -16.5zM287.5 301q-23.5 0 -40 16.5t-16.5 39.5t16.5 39.5t40 16.5t40 -16.5t16.5 -39.5t-16.5 -39.5t-40 -16.5z" />
    <glyph glyph-name="uniE6E5" unicode="&#xe6e5;" 
d="M545 320q13 0 22.5 9.5t9.5 22.5v512q0 13 -9.5 22.5t-22.5 9.5t-22.5 -9.5t-9.5 -22.5v-512q0 -13 9.5 -22.5t22.5 -9.5zM937 627q-41 59 -97 103q-57 45 -124 71q-13 4 -25 -1.5t-17 -17.5t0.5 -24.5t18.5 -16.5q120 -46 193.5 -153.5t73.5 -235.5q0 -113 -55.5 -209
t-151.5 -151.5t-209 -55.5t-208.5 55.5t-151.5 151.5t-56 209q0 128 74 235.5t194 153.5q12 4 17.5 16.5t0.5 24.5t-17 17.5t-24 1.5q-68 -26 -125 -71q-56 -44 -97 -103q-87 -123 -87 -275q0 -98 38 -187q36 -86 102.5 -152.5t152.5 -102.5q89 -38 187 -38t187 38
q86 36 152.5 102.5t102.5 152.5q38 89 38 187q0 151 -87 275z" />
    <glyph glyph-name="uniE6E6" unicode="&#xe6e6;" 
d="M839 282q4 13 7 26.5t4 30t1.5 26t1 31t0.5 26.5q2 124 2 163q0 12 -9 21t-21 9q-39 -1 -73.5 -12t-80.5 -32q-11 52 -45 96q-22 29 -54 53t-60 24q-44 0 -107 -72q-37 -41 -52 -98q-78 39 -142 41q-12 0 -21 -9t-9 -21q0 -24 -1.5 -75.5t-2 -84t4.5 -76.5t16 -77
q30 -88 108.5 -143.5t174.5 -65.5v-175q0 -19 14.5 -26.5t29 0t14.5 26.5v173q102 4 185 65t115 156zM245 324q-4 16 -5 33.5t0 46.5t1 34v115q10 -2 21 -5t19 -6t20.5 -8.5t18 -8.5t20.5 -11t19 -10q16 -8 29.5 0t15.5 26q5 46 32 85.5t69 63.5q11 6 29 -5.5t29 -23.5
t20 -24q29 -38 34 -90q-1 -6 1 -13q3 -15 18.5 -21t27.5 1q8 4 31.5 14.5t34.5 15.5t30 11t35 9q0 -38 -3 -187q-2 -103 -79 -171.5t-182 -74.5q-99 -7 -181.5 51t-104.5 153zM295 84q-32 10 -67 10.5t-68.5 -17t-46.5 -48.5q-10 -24 14 -33q25 -9 40 10q2 4 4 7q-2 -3 3 0
q2 1 8 5q14 9 19 11q58 19 110 -24q46 -38 85 -105q5 -9 14 -12.5t17.5 -0.5t15 9t8 15.5t-3.5 18.5q-70 122 -152 154zM913 21q-12 30 -45.5 47.5t-68.5 17.5t-67 -10q-82 -32 -152 -154q-5 -9 -4 -18.5t8 -15.5t15.5 -9t17.5 0.5t14 12.5q34 60 84 105q41 37 99 27
q22 -4 36 -14q1 -2 5 -6l1 1q10 -23 36 -19q22 4 24 21q0 7 -3 14z" />
    </font>
</defs>
</svg>
